<svg xmlns="http://www.w3.org/2000/svg" width="300" height="224" fill="none" viewBox="0 0 300 224"><path fill="#61C996" d="m146.795 12 20.336 11.74-.329 116.843-68.695 39.921-20.336-11.742.226-78.73-8.46 4.916L54 70.934l24.1-19.015z"/><path fill="#7CFBD2" d="m98.437 63.66-.33 116.844-20.336-11.742.226-80.488-8.46 6.674L54 70.934l24.1-19.015z"/><path stroke="#000" stroke-dasharray="2 2" stroke-linecap="round" stroke-linejoin="round" stroke-miterlimit="10" stroke-width="0.2" d="m98.173 156.906 48.292-28.065m20.337 11.742-20.337-11.742.227-80.488-8.46 6.673-15.537-24.014L146.795 12"/><path stroke="#000" stroke-linecap="round" stroke-linejoin="round" stroke-miterlimit="10" stroke-width="0.2" d="m98.437 63.66-.33 116.844-20.336-11.742.226-80.488-8.46 6.674L54 70.934l24.1-19.015zm0 0 68.694-39.918"/><path stroke="#000" stroke-dasharray="2 2" stroke-linecap="round" stroke-linejoin="round" stroke-miterlimit="10" stroke-width="0.2" d="m82.424 54.416 40.271-23.404M98.437 78.155l39.795-23.129"/><path stroke="#000" stroke-linecap="round" stroke-linejoin="round" stroke-miterlimit="10" stroke-width="0.2" d="M78.1 51.919 146.796 12l20.337 11.74-.33 116.843-68.694 39.921"/><path fill="#61C996" d="m213.971 50.784-4.194-2.423c-9.025-5.211-17.201-5.693-23.106-2.262l-68.695 39.922c-5.828 3.391-9.445 10.592-9.474 20.829l-.12 42.21c-.058 20.608 14.433 45.709 32.367 56.064l4.194 2.422c9.025 5.212 17.201 5.693 23.106 2.262l68.695-39.919c5.828-3.391 9.446-10.592 9.474-20.829l.121-42.21c.057-20.608-14.434-45.71-32.368-56.066"/><path fill="#7CFBD2" d="M145.276 90.702c17.934 10.355 32.428 35.456 32.368 56.067l-.121 42.209c-.057 20.609-14.645 28.922-32.58 18.568l-4.193-2.422c-17.935-10.355-32.429-35.456-32.368-56.064l.12-42.21c.057-20.608 14.646-28.922 32.58-18.567l4.194 2.422zm9.879 85.287.12-42.063c.023-7.743-5.424-17.174-12.163-21.064-6.74-3.89-12.221-.768-12.244 6.974l-.12 42.064c-.023 7.742 5.423 17.177 12.163 21.067s12.221.768 12.241-6.978"/><path stroke="#000" stroke-linecap="round" stroke-linejoin="round" stroke-miterlimit="10" stroke-width="0.2" d="m213.971 50.784-4.194-2.423c-9.025-5.211-17.201-5.693-23.106-2.262l-68.695 39.922c-5.828 3.391-9.445 10.592-9.474 20.829l-.12 42.21c-.058 20.608 14.433 45.709 32.367 56.064l4.194 2.422c9.025 5.212 17.201 5.693 23.106 2.262l68.695-39.919c5.828-3.391 9.446-10.592 9.474-20.829l.121-42.21c.057-20.608-14.434-45.71-32.368-56.066"/><path stroke="#000" stroke-linecap="round" stroke-linejoin="round" stroke-miterlimit="10" stroke-width="0.2" d="m155.155 175.989.12-42.063c.023-7.743-5.424-17.174-12.163-21.064-6.74-3.89-12.221-.768-12.244 6.974l-.12 42.064c-.023 7.742 5.423 17.177 12.163 21.067s12.221.768 12.241-6.978m-9.876-85.287c17.934 10.355 32.428 35.456 32.368 56.067l-.121 42.209c-.057 20.609-14.645 28.922-32.58 18.568l-4.193-2.422c-17.935-10.355-32.429-35.456-32.368-56.064l.12-42.21c.057-20.608 14.646-28.922 32.58-18.567l4.194 2.422z"/><path stroke="#000" stroke-dasharray="2 2" stroke-linecap="round" stroke-linejoin="round" stroke-miterlimit="10" stroke-width="0.2" d="m223.849 136.071.121-42.063c.023-7.743-5.424-17.175-12.164-21.065s-12.22-.768-12.243 6.975l-.121 42.063c-.023 7.743 5.424 17.177 12.164 21.067s12.22.768 12.241-6.977m-9.876-85.287c17.934 10.354 32.428 35.455 32.368 56.066l-.121 42.21c-.057 20.608-14.646 28.922-32.58 18.567l-4.194-2.422c-17.934-10.355-32.428-35.455-32.368-56.064l.121-42.21c.057-20.608 14.646-28.921 32.58-18.567l4.194 2.422z"/><path stroke="#000" stroke-linecap="round" stroke-linejoin="round" stroke-miterlimit="10" stroke-width="0.2" d="m77.997 90.032-8.46 4.916"/></svg>