<svg xmlns="http://www.w3.org/2000/svg" width="300" height="224" fill="none" viewBox="0 0 300 224"><path fill="#3679D0" stroke="#000" stroke-linejoin="round" stroke-miterlimit="10" stroke-width="0.2" d="m198.623 165.526 19.831-11.447c5.849-3.372 10.609-11.618 10.609-18.374V65.992c0-6.756-4.76-9.497-10.609-6.125l-19.831 11.447v3.498l19.831-11.447c4.175-2.408 7.581-.447 7.581 4.382v69.713c0 4.828-3.395 10.712-7.581 13.121l-19.831 11.447z"/><path fill="#3679D0" stroke="#000" stroke-linejoin="round" stroke-miterlimit="10" stroke-width="0.2" d="M204.313 51.7c3.143-1.812 5.964-1.846 7.903-.459l13.579 7.812c-1.915-1.021-4.496-.838-7.34.814l-19.831 11.447-14.142-8.167z"/><path fill="#87BCF2" stroke="#000" stroke-linejoin="round" stroke-miterlimit="10" stroke-width="0.2" d="M211.894 129.292V67.15l6.561-3.786c4.175-2.408 7.581-.447 7.581 4.382v69.713c0 4.828-3.395 10.712-7.581 13.121l-19.831 11.446-14.142-8.166 19.831-11.447c4.175-2.408 7.581-8.304 7.581-13.121Z"/><path fill="#3679D0" stroke="#000" stroke-linejoin="round" stroke-miterlimit="10" stroke-width="0.2" d="m146.838 135.624 19.83-11.446c5.85-3.372 10.61-11.619 10.61-18.375V36.091c0-6.756-4.76-9.497-10.61-6.125l-19.83 11.447v3.498l19.83-11.447c4.175-2.408 7.582-.447 7.582 4.37v69.713c0 4.817-3.396 10.712-7.582 13.121l-19.83 11.447z"/><path fill="#3679D0" stroke="#000" stroke-linejoin="round" stroke-miterlimit="10" stroke-width="0.2" d="M152.528 21.799c3.143-1.812 5.964-1.847 7.914-.459l13.58 7.81c-1.904-1.02-4.496-.836-7.34.815l-19.831 11.447-14.142-8.166 19.831-11.447z"/><path fill="#87BCF2" stroke="#000" stroke-linejoin="round" stroke-miterlimit="10" stroke-width="0.2" d="M160.109 99.391V37.248l6.561-3.784c4.174-2.41 7.581-.448 7.581 4.37v69.712c0 4.818-3.395 10.713-7.581 13.122l-19.831 11.446-14.142-8.155 19.831-11.447c4.175-2.408 7.581-8.304 7.581-13.12Zm13.637 107.781c-3.762 1.64-15.828-.573-20.336-2.649-4.507-2.065 11.011-13.362 14.269-13.156 3.257.207 6.067 15.794 6.067 15.794z"/><path fill="#87BCF2" stroke="#000" stroke-linejoin="round" stroke-miterlimit="10" stroke-width="0.2" d="M87.278 47.56c1.526-10.232 9.462-13.73 17.697-8.97 21.54 12.433 43.091 24.877 64.631 37.31 8.234 4.75 13.969 15.932 12.478 25.899-4.576 30.578-9.141 61.156-13.706 91.723-1.571 10.552-9.588 14.578-17.823 9.818-21.54-12.444-43.091-24.878-64.63-37.311-8.235-4.748-13.958-16.034-12.444-26.185 4.599-30.762 9.198-61.523 13.797-92.296z"/><path stroke="#000" stroke-dasharray="2 2" stroke-linecap="round" stroke-linejoin="round" stroke-miterlimit="10" stroke-width="0.2" d="M207.455 187.406c-2.017-.263-4.124-.993-6.243-2.217-25.309-14.623-50.631-29.231-75.939-43.84-9.676-5.579-16.401-18.84-14.622-30.767l13.418-89.756"/><path fill="#000" stroke="#000" stroke-linejoin="round" stroke-miterlimit="10" stroke-width="0.2" d="M107.28 74.685c16.837 9.555 33.674 19.12 50.511 28.674.23-1.536.344-2.305.574-3.83-16.837-9.578-33.663-19.155-50.5-28.732a608 608 0 0 1-.585 3.888Z"/><path fill="#3679D0" stroke="#000" stroke-linejoin="round" stroke-miterlimit="10" stroke-width="0.2" d="M155.074 111.01c.436-2.879-2.397-12.65-2.397-12.65s-5.069 5.298-5.493 8.189c-.436 2.89.974 6.262 3.154 7.489s4.301-.137 4.736-3.028Z"/><path fill="#87BCF2" stroke="#000" stroke-linejoin="round" stroke-miterlimit="10" stroke-width="0.2" d="M152.54 109.587c.161-1.044-.356-2.236-1.136-2.684s-1.548.035-1.697 1.078c-.161 1.044.356 2.249 1.136 2.696s1.548-.046 1.697-1.078z"/><path fill="#3679D0" stroke="#000" stroke-linejoin="round" stroke-miterlimit="10" stroke-width="0.2" d="M207.618 187.309c3.577-3.29 6.169-8.185 6.169-12.172V82.278s-22.847 13.076-31.541 18.111h-.012l-13.602 91.391c-1.514 10.15 1.239 17.8 6.251 14.91l29.809-17.204a16.7 16.7 0 0 0 2.926-2.177ZM134.2 21.833l64.423 37.196-29.017 16.872-.104-.057-64.526-37.254z"/><path fill="#3679D0" stroke="#000" stroke-linejoin="round" stroke-miterlimit="10" stroke-width="0.2" d="M122.02 21.833c3.247-2.328 7.639-2.408 12.181 0 0 0-29.19 16.78-29.224 16.757-4.347-2.512-8.602-2.695-11.882-.837-.035 0 28.925-15.931 28.925-15.931zm76.604 37.197s.528.252.78.401c7.662 4.428 14.841 13.443 14.371 22.837-5.413 3.12-31.541 18.11-31.541 18.11.78-9.588-4.783-19.957-12.628-24.488-.034-.023 29.018-16.871 29.018-16.871z"/><path fill="#87BCF2" stroke="#000" stroke-linejoin="round" stroke-miterlimit="10" stroke-width="0.2" d="M111.605 27.558c2.879-.792 6.24-.287 9.681 1.697l64.504 37.242c6.847 3.957 15.162 13.236 15.174 23.123l-.058 28.926-3.028 1.744.058-28.904c0-10.907-7.318-18.615-15.163-23.134L118.257 31c-3.521-2.03-6.961-2.524-9.898-1.652l3.258-1.79z"/><path fill="#3679D0" stroke="#000" stroke-linejoin="round" stroke-miterlimit="10" stroke-width="0.2" d="M144.281 195.359c2.202-14.762 3.406-22.813 5.792-38.71 1.296-8.683-2.913-18.742-9.302-22.332-16.768-9.416-33.548-18.833-50.327-28.249-2.294-1.296-4.588-1.56-6.641-.975l7.11-4.37c.173-.126.368-.23.551-.333l.138-.08c2.443-1.353 5.39-1.388 8.35.275 16.78 9.417 33.548 18.833 50.327 28.25 6.4 3.59 10.599 13.649 9.302 22.331a44433 44433 0 0 1-5.792 38.711c-.562 3.75-2.213 6.411-4.438 7.833 0 .011-.356.218-.356.218-.069.035-.126.08-.195.115l-9.439 5.448c2.477-1.331 4.312-4.106 4.908-8.121z"/><path fill="#87BCF2" stroke="#000" stroke-linejoin="round" stroke-miterlimit="10" stroke-width="0.2" d="M70.682 153.585c-1.159 7.777 3.234 16.574 9.622 20.244 16.734 9.669 33.48 19.327 50.214 28.996 6.376 3.681 12.547.573 13.763-7.479a36798 36798 0 0 1 5.792-38.71c1.296-8.683-2.913-18.741-9.302-22.331-16.768-9.417-33.548-18.833-50.328-28.25-6.388-3.59-12.73.642-14.038 9.348-2.386 15.943-3.579 23.926-5.712 38.171z"/><path fill="#000" stroke="#000" stroke-linejoin="round" stroke-miterlimit="10" stroke-width="0.2" d="M86.658 130.497c16.86 9.428 33.709 18.868 50.569 28.296.241-1.606.367-2.42.608-4.038-16.86-9.427-33.709-18.867-50.569-28.295-.24 1.617-.367 2.42-.608 4.037Z"/><path fill="#3679D0" stroke="#000" stroke-linejoin="round" stroke-miterlimit="10" stroke-width="0.2" d="M134.462 166.696c.436-2.914-2.351-12.938-2.351-12.938s-5.115 5.609-5.551 8.51c-.436 2.914.986 6.229 3.165 7.456s4.301-.115 4.737-3.028Z"/><path fill="#87BCF2" stroke="#000" stroke-linejoin="round" stroke-miterlimit="10" stroke-width="0.2" d="M131.94 165.273c.149-1.044-.355-2.26-1.135-2.695s-1.548.057-1.698 1.101c-.16 1.044.356 2.248 1.136 2.684s1.548-.046 1.709-1.09z"/><path stroke="#000" stroke-dasharray="2 2" stroke-linecap="round" stroke-linejoin="round" stroke-miterlimit="10" stroke-width="0.2" d="M141.884 199.897s-44.441-25.642-59.374-34.263m-.18-.133c-3.48-2.474-3.662-6.347-3.368-9.703m.186-1.231 8.27-49.842"/></svg>