<?xml version="1.0" encoding="utf-8"?>
<!-- Generator: Adobe Illustrator 27.5.0, SVG Export Plug-In . SVG Version: 6.00 Build 0)  -->
<svg version="1.1" xmlns="http://www.w3.org/2000/svg" xmlns:xlink="http://www.w3.org/1999/xlink" x="0px" y="0px"
	 viewBox="0 0 750 500" style="enable-background:new 0 0 750 500;" xml:space="preserve">
<g id="BACKGROUND">
	<rect style="fill:#F0F2F2;" width="750" height="500"/>
</g>
<g id="OBJECTS">
	<g>
		<defs>
			<rect id="SVGID_1_" width="750" height="500"/>
		</defs>
		<clipPath id="SVGID_00000057140459264704558390000013485875617256609419_">
			<use xlink:href="#SVGID_1_"  style="overflow:visible;"/>
		</clipPath>
		<path style="clip-path:url(#SVGID_00000057140459264704558390000013485875617256609419_);fill:#F8F9F9;" d="M90.265,530.31
			c-0.712-14.018,9.107-26.772,21.04-34.162c11.933-7.391,25.881-10.627,39.279-14.811c13.398-4.184,27.033-9.803,36.127-20.495
			c8.791-10.336,12.229-24.075,18.629-36.04c13.407-25.061,41.099-41.811,69.52-42.049c14.266-0.12,28.243,3.579,42.187,6.593
			c13.944,3.014,28.423,5.363,42.409,2.549c29.992-6.037,43.243-39.469,55.153-64.048c10.61-21.894,25.379-44.904,48.971-50.845
			c24.414-6.148,47.67,5.99,71.782,5.685c23.141-0.293,46.376-9.949,61.872-27.334c18.03-20.228,26.802-49.742,50.723-62.471
			c14.998-7.981,32.848-7.495,49.825-8.132c16.977-0.637,35.384-3.281,47.226-15.462c6.424-6.609,10.15-15.307,13.841-23.752
			c3.691-8.446,7.65-17.085,14.384-23.378c6.734-6.292,16.986-9.722,25.393-5.944v401.126L90.265,530.31z"/>
		<g style="clip-path:url(#SVGID_00000057140459264704558390000013485875617256609419_);">
			<path style="fill:none;stroke:#ABB1B1;stroke-width:0.35;stroke-miterlimit:10;" d="M123.414,522.662
				c5.631-19.54,26.921-38.062,47.218-39.311c20.297-1.249,43.421,11.686,62.021,3.467c16.953-7.491,21.368-40.623,39.387-44.964
				c18.665-4.497,46.567,21.854,65.553,19.008c27.067-4.058,44.143-30.7,55.978-55.379c11.835-24.679,24.322-52.371,49.521-63.054
				c19.021-8.063,41.018-4.198,60.444,2.833c19.426,7.031,37.849,17.101,58.012,21.602c20.163,4.501,43.47,2.332,58.101-12.253
				c20.533-20.469,16.891-64.695,43.22-76.836c24.61-11.349,51.168,13.504,80.363,7.53c21.958-4.492,25.07-56.033,45.897-75.585
				c11.662-10.948,35.421-11.447,49.727-4.29"/>
			<path style="fill:none;stroke:#ABB1B1;stroke-width:0.35;stroke-miterlimit:10;" d="M131.721,525.539
				c5.581-19.366,26.681-37.722,46.797-38.96s43.033,11.582,61.467,3.436c16.801-7.424,21.177-40.26,39.035-44.562
				c18.498-4.457,46.151,21.659,64.968,18.838c26.825-4.022,43.749-30.426,55.478-54.884c11.729-24.458,24.105-51.904,49.078-62.491
				c18.851-7.991,40.652-4.16,59.905,2.808c19.253,6.968,37.51,16.948,57.494,21.41c19.983,4.461,43.082,2.312,57.583-12.144
				c20.35-20.286,16.741-64.117,42.834-76.15c24.39-11.247,50.711,13.383,79.646,7.463c21.761-4.452,24.846-55.533,45.487-74.91
				c11.558-10.85,35.105-11.344,49.283-4.251"/>
			<path style="fill:none;stroke:#ABB1B1;stroke-width:0.35;stroke-miterlimit:10;" d="M140.027,528.415
				c5.531-19.191,26.441-37.382,46.375-38.609c19.935-1.227,42.645,11.477,60.913,3.405c16.65-7.357,20.987-39.897,38.683-44.161
				c18.332-4.417,45.735,21.464,64.383,18.668c26.584-3.986,43.355-30.152,54.978-54.39c11.623-24.238,23.887-51.436,48.636-61.928
				c18.681-7.919,40.286-4.123,59.365,2.783c19.079,6.906,37.173,16.796,56.976,21.217c19.803,4.421,42.694,2.291,57.064-12.035
				c20.166-20.104,16.59-63.539,42.448-75.464c24.17-11.146,50.254,13.262,78.928,7.396c21.565-4.412,24.622-55.033,45.077-74.236
				c11.454-10.753,34.788-11.242,48.839-4.213"/>
			<path style="fill:none;stroke:#ABB1B1;stroke-width:0.35;stroke-miterlimit:10;" d="M148.333,531.291
				c5.48-19.017,26.2-37.042,45.954-38.258c19.753-1.216,42.257,11.373,60.36,3.374c16.498-7.29,20.796-39.535,38.331-43.76
				c18.165-4.377,45.32,21.269,63.798,18.499c26.342-3.95,42.961-29.878,54.478-53.895c11.518-24.018,23.67-50.968,48.194-61.365
				c18.511-7.848,39.919-4.086,58.825,2.757c18.906,6.843,36.835,16.643,56.458,21.024c19.623,4.381,42.306,2.27,56.545-11.925
				c19.983-19.921,16.439-62.962,42.062-74.778c23.951-11.045,49.797,13.142,78.211,7.329c21.369-4.372,24.398-54.532,44.667-73.561
				c11.35-10.655,34.472-11.14,48.395-4.175"/>
			<path style="fill:none;stroke:#ABB1B1;stroke-width:0.35;stroke-miterlimit:10;" d="M156.64,534.167
				c5.43-18.842,25.96-36.702,45.532-37.907c19.572-1.205,41.87,11.269,59.806,3.343c16.347-7.224,20.605-39.172,37.98-43.358
				c17.998-4.337,44.904,21.074,63.212,18.329c26.1-3.913,42.567-29.604,53.979-53.401c11.412-23.797,23.453-50.501,47.752-60.802
				c18.341-7.775,39.553-4.048,58.286,2.732c18.732,6.78,36.497,16.49,55.94,20.831c19.443,4.341,41.918,2.249,56.026-11.816
				c19.799-19.738,16.288-62.384,41.676-74.092c23.731-10.943,49.34,13.021,77.493,7.262c21.173-4.332,24.174-54.032,44.258-72.886
				c11.246-10.557,34.156-11.038,47.951-4.136"/>
			<path style="fill:none;stroke:#ABB1B1;stroke-width:0.35;stroke-miterlimit:10;" d="M164.946,537.043
				c5.38-18.668,25.72-36.362,45.111-37.556c19.391-1.194,41.482,11.164,59.252,3.312c16.196-7.157,20.414-38.809,37.628-42.957
				c17.831-4.296,44.488,20.879,62.627,18.159c25.859-3.877,42.173-29.329,53.479-52.906c11.306-23.577,23.236-50.033,47.31-60.239
				c18.172-7.703,39.187-4.01,57.746,2.707c18.559,6.717,36.159,16.338,55.422,20.638c19.263,4.3,41.53,2.228,55.508-11.706
				c19.616-19.555,16.137-61.806,41.29-73.406c23.511-10.842,48.884,12.901,76.776,7.194c20.977-4.292,23.951-53.532,43.848-72.211
				c11.142-10.459,33.84-10.935,47.507-4.098"/>
			<path style="fill:none;stroke:#ABB1B1;stroke-width:0.35;stroke-miterlimit:10;" d="M173.253,539.919
				c5.329-18.494,25.479-36.022,44.689-37.205c19.21-1.183,41.094,11.06,58.698,3.281c16.044-7.09,20.223-38.446,37.276-42.555
				c17.665-4.256,44.072,20.684,62.042,17.989c25.617-3.841,41.779-29.055,52.979-52.412c11.201-23.357,23.019-49.566,46.868-59.676
				c18.002-7.632,38.821-3.973,57.206,2.682c18.385,6.654,35.821,16.185,54.904,20.445c19.083,4.26,41.142,2.207,54.989-11.597
				c19.433-19.373,15.987-61.229,40.904-72.72c23.292-10.741,48.427,12.78,76.058,7.127c20.781-4.252,23.727-53.032,43.438-71.536
				c11.038-10.362,33.523-10.833,47.063-4.06"/>
			<path style="fill:none;stroke:#ABB1B1;stroke-width:0.35;stroke-miterlimit:10;" d="M181.559,542.795
				c5.279-18.319,25.239-35.683,44.267-36.854c19.029-1.172,40.707,10.956,58.145,3.25c15.893-7.023,20.033-38.084,36.925-42.154
				c17.498-4.216,43.656,20.488,61.456,17.82c25.375-3.805,41.384-28.781,52.479-51.918c11.095-23.136,22.802-49.098,46.426-59.113
				c17.832-7.56,38.454-3.935,56.667,2.656c18.212,6.592,35.483,16.032,54.386,20.252c18.903,4.22,40.753,2.186,54.47-11.488
				c19.25-19.19,15.836-60.651,40.519-72.033c23.072-10.64,47.97,12.66,75.34,7.06c20.585-4.212,23.503-52.531,43.028-70.861
				c10.933-10.264,33.207-10.731,46.618-4.022"/>
			<path style="fill:none;stroke:#ABB1B1;stroke-width:0.35;stroke-miterlimit:10;" d="M189.865,545.672
				c5.229-18.145,24.998-35.343,43.846-36.503c18.847-1.16,40.319,10.851,57.591,3.219c15.742-6.956,19.842-37.721,36.573-41.752
				c17.332-4.176,43.241,20.293,60.871,17.65c25.134-3.768,40.99-28.507,51.979-51.423s22.585-48.63,45.983-58.55
				c17.662-7.487,38.088-3.898,56.127,2.631s35.145,15.879,53.868,20.059c18.723,4.18,40.365,2.166,53.951-11.378
				c19.066-19.007,15.685-60.074,40.133-71.347c22.852-10.538,47.513,12.539,74.623,6.992c20.389-4.171,23.279-52.031,42.618-70.186
				c10.829-10.166,32.891-10.629,46.175-3.983"/>
			<path style="fill:none;stroke:#ABB1B1;stroke-width:0.35;stroke-miterlimit:10;" d="M198.172,548.548
				c5.178-17.97,24.758-35.003,43.424-36.152c18.666-1.149,39.931,10.747,57.037,3.188c15.59-6.889,19.651-37.358,36.221-41.351
				c17.165-4.136,42.825,20.098,60.286,17.48c24.892-3.732,40.596-28.233,51.48-50.929c10.884-22.695,22.367-48.163,45.541-57.987
				c17.492-7.415,37.722-3.861,55.587,2.605c17.865,6.466,34.807,15.727,53.35,19.867c18.543,4.14,39.977,2.145,53.432-11.269
				c18.883-18.824,15.534-59.496,39.747-70.661c22.632-10.437,47.056,12.419,73.905,6.925c20.193-4.131,23.055-51.531,42.209-69.511
				c10.725-10.069,32.575-10.527,45.731-3.945"/>
			<path style="fill:none;stroke:#ABB1B1;stroke-width:0.35;stroke-miterlimit:10;" d="M206.478,551.424
				c5.128-17.796,24.518-34.663,43.002-35.801c18.485-1.138,39.544,10.643,56.483,3.157c15.439-6.822,19.46-36.995,35.87-40.949
				c16.998-4.095,42.409,19.903,59.7,17.31c24.65-3.696,40.202-27.959,50.98-50.434c10.778-22.475,22.15-47.695,45.099-57.424
				c17.322-7.344,37.356-3.823,55.047,2.58c17.692,6.403,34.469,15.574,52.832,19.674c18.363,4.099,39.589,2.124,52.914-11.159
				c18.7-18.642,15.383-58.918,39.361-69.975c22.413-10.335,46.599,12.298,73.188,6.858c19.997-4.091,22.831-51.03,41.799-68.836
				c10.621-9.971,32.258-10.425,45.286-3.907"/>
			<path style="fill:none;stroke:#ABB1B1;stroke-width:0.35;stroke-miterlimit:10;" d="M214.785,554.3
				c5.078-17.621,24.277-34.323,42.581-35.45c18.304-1.127,39.156,10.538,55.93,3.126c15.288-6.755,19.27-36.633,35.518-40.548
				c16.831-4.055,41.993,19.708,59.115,17.141c24.409-3.66,39.808-27.685,50.48-49.94c10.672-22.255,21.933-47.227,44.657-56.861
				c17.153-7.272,36.989-3.786,54.508,2.555c17.518,6.34,34.131,15.421,52.314,19.481c18.183,4.059,39.201,2.103,52.395-11.05
				c18.516-18.459,15.232-58.341,38.975-69.289c22.193-10.234,46.142,12.177,72.47,6.791c19.801-4.051,22.608-50.53,41.389-68.162
				c10.517-9.873,31.942-10.322,44.843-3.868"/>
			<path style="fill:none;stroke:#ABB1B1;stroke-width:0.35;stroke-miterlimit:10;" d="M223.091,557.176
				c5.028-17.447,24.037-33.983,42.159-35.099c18.122-1.116,38.768,10.434,55.376,3.095c15.136-6.688,19.079-36.27,35.166-40.146
				c16.665-4.015,41.577,19.513,58.53,16.971c24.167-3.624,39.414-27.411,49.98-49.445c10.566-22.034,21.716-46.76,44.215-56.298
				c16.983-7.199,36.623-3.748,53.968,2.53c17.345,6.278,33.793,15.269,51.796,19.288c18.003,4.019,38.813,2.082,51.876-10.94
				c18.333-18.276,15.082-57.763,38.589-68.603c21.973-10.133,45.685,12.057,71.753,6.724c19.605-4.011,22.384-50.03,40.979-67.487
				c10.413-9.775,31.626-10.22,44.399-3.83"/>
			<path style="fill:none;stroke:#ABB1B1;stroke-width:0.35;stroke-miterlimit:10;" d="M231.397,560.052
				c4.977-17.272,23.797-33.644,41.738-34.748c17.941-1.104,38.381,10.33,54.822,3.064c14.985-6.622,18.888-35.907,34.815-39.745
				c16.498-3.975,41.162,19.318,57.944,16.801c23.925-3.587,39.02-27.137,49.48-48.951c10.461-21.814,21.499-46.292,43.772-55.735
				c16.813-7.128,36.257-3.711,53.428,2.504c17.171,6.215,33.455,15.116,51.278,19.095c17.823,3.979,38.425,2.062,51.357-10.831
				c18.15-18.093,14.931-57.185,38.203-67.917c21.753-10.031,45.229,11.936,71.035,6.656c19.409-3.971,22.16-49.529,40.569-66.812
				c10.309-9.677,31.31-10.118,43.955-3.792"/>
			<path style="fill:none;stroke:#ABB1B1;stroke-width:0.35;stroke-miterlimit:10;" d="M239.704,562.929
				c4.927-17.098,23.556-33.304,41.316-34.397c17.76-1.093,37.993,10.225,54.268,3.034c14.833-6.555,18.697-35.545,34.463-39.343
				c16.332-3.935,40.746,19.123,57.359,16.632c23.684-3.551,38.625-26.863,48.98-48.456c10.355-21.594,21.281-45.825,43.33-55.172
				c16.643-7.055,35.891-3.673,52.889,2.479c16.998,6.152,33.117,14.963,50.76,18.902c17.643,3.939,38.036,2.041,50.839-10.722
				c17.966-17.91,14.78-56.608,37.817-67.231c21.534-9.93,44.772,11.816,70.318,6.589c19.213-3.931,21.936-49.029,40.16-66.137
				c10.204-9.58,30.993-10.016,43.511-3.754"/>
			<path style="fill:none;stroke:#ABB1B1;stroke-width:0.35;stroke-miterlimit:10;" d="M248.01,565.805
				c4.877-16.923,23.316-32.964,40.894-34.046s37.605,10.121,53.715,3.003c14.682-6.488,18.506-35.182,34.111-38.942
				c16.165-3.895,40.33,18.927,56.774,16.462c23.442-3.515,38.231-26.588,48.481-47.962c10.25-21.374,21.064-45.357,42.888-54.609
				c16.473-6.983,35.525-3.636,52.349,2.454c16.824,6.09,32.779,14.811,50.242,18.709s37.648,2.02,50.32-10.612
				c17.783-17.728,14.629-56.03,37.431-66.545c21.314-9.829,44.315,11.695,69.6,6.522c19.017-3.891,21.712-48.529,39.75-65.462
				c10.1-9.482,30.677-9.913,43.067-3.715"/>
			<path style="fill:none;stroke:#ABB1B1;stroke-width:0.35;stroke-miterlimit:10;" d="M256.317,568.681
				c4.827-16.749,23.075-32.624,40.473-33.695c17.398-1.071,37.217,10.017,53.161,2.972c14.531-6.421,18.316-34.819,33.76-38.54
				c15.998-3.855,39.914,18.732,56.188,16.292c23.2-3.479,37.837-26.314,47.981-47.467c10.144-21.153,20.847-44.889,42.446-54.046
				c16.304-6.911,35.158-3.598,51.809,2.428c16.651,6.027,32.441,14.658,49.724,18.516c17.283,3.858,37.26,1.999,49.801-10.503
				c17.6-17.545,14.478-55.452,37.045-65.859c21.094-9.727,43.858,11.574,68.882,6.455c18.821-3.851,21.488-48.028,39.34-64.787
				c9.996-9.384,30.361-9.811,42.623-3.677"/>
			<path style="fill:none;stroke:#ABB1B1;stroke-width:0.35;stroke-miterlimit:10;" d="M264.623,571.557
				c4.776-16.574,22.835-32.284,40.051-33.344c17.216-1.06,36.83,9.912,52.607,2.941c14.379-6.354,18.125-34.457,33.408-38.139
				c15.832-3.814,39.498,18.537,55.603,16.122c22.959-3.442,37.443-26.04,47.481-46.973c10.038-20.933,20.63-44.422,42.004-53.483
				c16.134-6.839,34.792-3.561,51.27,2.403c16.477,5.964,32.104,14.505,49.206,18.323c17.102,3.818,36.872,1.978,49.282-10.393
				c17.416-17.362,14.328-54.875,36.66-65.173c20.874-9.626,43.401,11.454,68.165,6.387c18.625-3.81,21.265-47.528,38.93-64.112
				c9.892-9.286,30.044-9.709,42.179-3.638"/>
			<path style="fill:none;stroke:#ABB1B1;stroke-width:0.35;stroke-miterlimit:10;" d="M272.93,574.433
				c4.726-16.4,22.595-31.944,39.63-32.993c17.035-1.049,36.442,9.808,52.053,2.91c14.228-6.287,17.934-34.094,33.056-37.737
				c15.665-3.774,39.083,18.342,55.018,15.953c22.717-3.406,37.049-25.766,46.981-46.478c9.932-20.712,20.413-43.954,41.562-52.92
				c15.964-6.767,34.426-3.523,50.73,2.378c16.304,5.901,31.766,14.353,48.688,18.13c16.922,3.778,36.484,1.958,48.763-10.284
				c17.233-17.179,14.177-54.297,36.274-64.487c20.655-9.525,42.944,11.333,67.447,6.32c18.429-3.77,21.041-47.028,38.52-63.437
				c9.788-9.189,29.728-9.607,41.734-3.6"/>
			<path style="fill:none;stroke:#ABB1B1;stroke-width:0.35;stroke-miterlimit:10;" d="M281.236,577.309
				c4.676-16.225,22.354-31.605,39.208-32.642c16.854-1.038,36.054,9.704,51.499,2.879c14.077-6.22,17.743-33.731,32.705-37.336
				c15.498-3.734,38.667,18.147,54.432,15.783c22.475-3.37,36.655-25.492,46.482-45.984c9.827-20.492,20.196-43.487,41.119-52.357
				c15.794-6.696,34.06-3.486,50.19,2.353c16.13,5.838,31.428,14.2,48.17,17.938c16.742,3.738,36.096,1.937,48.245-10.175
				c17.05-16.997,14.026-53.719,35.888-63.801c20.435-9.423,42.487,11.213,66.73,6.253c18.232-3.73,20.817-46.527,38.111-62.763
				c9.684-9.091,29.412-9.505,41.291-3.562"/>
			<path style="fill:none;stroke:#ABB1B1;stroke-width:0.35;stroke-miterlimit:10;" d="M289.542,580.185
				c4.625-16.051,22.114-31.265,38.786-32.291c16.672-1.026,35.667,9.599,50.946,2.848c13.925-6.153,17.552-33.369,32.353-36.935
				c15.332-3.694,38.251,17.952,53.847,15.613c22.234-3.334,36.26-25.218,45.982-45.489c9.721-20.272,19.979-43.019,40.677-51.794
				c15.624-6.624,33.693-3.448,49.65,2.327s31.09,14.047,47.652,17.745c16.563,3.697,35.708,1.916,47.726-10.065
				c16.866-16.814,13.875-53.142,35.502-63.115c20.215-9.322,42.03,11.092,66.012,6.186c18.036-3.69,20.593-46.027,37.701-62.088
				c9.58-8.993,29.095-9.402,40.847-3.524"/>
			<path style="fill:none;stroke:#ABB1B1;stroke-width:0.35;stroke-miterlimit:10;" d="M297.849,583.062
				c4.575-15.876,21.874-30.925,38.365-31.94c16.491-1.015,35.279,9.495,50.392,2.817c13.774-6.086,17.362-33.006,32.001-36.533
				c15.165-3.654,37.835,17.757,53.262,15.444c21.992-3.297,35.866-24.944,45.482-44.995c9.615-20.051,19.761-42.551,40.235-51.231
				c15.454-6.552,33.327-3.411,49.111,2.302c15.784,5.713,30.752,13.895,47.134,17.552c16.382,3.657,35.32,1.895,47.207-9.956
				c16.683-16.631,13.724-52.564,35.116-62.429c19.995-9.221,41.574,10.972,65.295,6.118c17.84-3.65,20.369-45.527,37.291-61.413
				c9.475-8.895,28.779-9.3,40.403-3.485"/>
			<path style="fill:none;stroke:#ABB1B1;stroke-width:0.35;stroke-miterlimit:10;" d="M306.155,585.938
				c4.525-15.702,21.633-30.585,37.943-31.589c16.31-1.004,34.891,9.391,49.838,2.786c13.622-6.019,17.171-32.643,31.65-36.131
				c14.998-3.614,37.419,17.561,52.676,15.274c21.75-3.261,35.472-24.669,44.982-44.5c9.51-19.831,19.544-42.084,39.793-50.668
				c15.285-6.479,32.961-3.373,48.571,2.277c15.61,5.65,30.414,13.742,46.616,17.359c16.202,3.617,34.931,1.874,46.688-9.846
				c16.5-16.448,13.573-51.986,34.73-61.743c19.776-9.12,41.117,10.851,64.577,6.051c17.644-3.61,20.145-45.026,36.881-60.738
				c9.371-8.798,28.463-9.198,39.959-3.447"/>
			<path style="fill:none;stroke:#ABB1B1;stroke-width:0.35;stroke-miterlimit:10;" d="M314.461,588.814
				c4.475-15.528,21.393-30.245,37.522-31.238c16.129-0.993,34.504,9.286,49.284,2.755c13.471-5.953,16.98-32.28,31.298-35.73
				c14.832-3.573,37.004,17.366,52.091,15.104c21.509-3.225,35.078-24.395,44.482-44.006c9.404-19.611,19.327-41.616,39.351-50.105
				c15.115-6.408,32.595-3.336,48.031,2.251c15.437,5.587,30.076,13.589,46.098,17.166c16.022,3.577,34.543,1.853,46.17-9.737
				c16.316-16.266,13.423-51.409,34.344-61.057c19.556-9.018,40.66,10.731,63.86,5.984c17.448-3.57,19.921-44.526,36.471-60.063
				c9.267-8.7,28.147-9.096,39.514-3.409"/>
			<path style="fill:none;stroke:#ABB1B1;stroke-width:0.35;stroke-miterlimit:10;" d="M322.768,591.69
				c4.424-15.353,21.152-29.905,37.1-30.887c15.948-0.982,34.116,9.182,48.73,2.724c13.32-5.886,16.789-31.917,30.946-35.328
				c14.665-3.533,36.588,17.171,51.506,14.935c21.267-3.189,34.684-24.121,43.982-43.512c9.298-19.39,19.11-41.148,38.909-49.542
				c14.945-6.336,32.228-3.298,47.492,2.226c15.263,5.524,29.738,13.436,45.58,16.973c15.842,3.537,34.155,1.833,45.651-9.628
				c16.133-16.083,13.272-50.831,33.958-60.371c19.336-8.917,40.203,10.61,63.142,5.917c17.252-3.53,19.698-44.026,36.062-59.388
				c9.163-8.602,27.831-8.994,39.071-3.37"/>
			<path style="fill:none;stroke:#ABB1B1;stroke-width:0.35;stroke-miterlimit:10;" d="M331.074,594.566
				c4.374-15.179,20.912-29.566,36.678-30.536c15.766-0.971,33.728,9.078,48.177,2.693c13.168-5.819,16.599-31.555,30.595-34.927
				c14.498-3.493,36.172,16.976,50.921,14.765c21.025-3.153,34.29-23.847,43.483-43.017c9.193-19.17,18.893-40.681,38.467-48.979
				c14.775-6.263,31.862-3.261,46.952,2.201c15.09,5.462,29.4,13.284,45.062,16.78c15.662,3.497,33.767,1.812,45.132-9.518
				c15.95-15.9,13.121-50.254,33.572-59.685c19.117-8.815,39.746,10.489,62.424,5.849c17.056-3.49,19.474-43.525,35.652-58.713
				c9.059-8.504,27.514-8.891,38.627-3.332"/>
			<path style="fill:none;stroke:#ABB1B1;stroke-width:0.35;stroke-miterlimit:10;" d="M339.381,597.442
				c4.324-15.004,20.672-29.226,36.257-30.185c15.585-0.96,33.341,8.973,47.623,2.662c13.017-5.752,16.408-31.192,30.243-34.526
				c14.332-3.453,35.756,16.781,50.335,14.595c20.783-3.116,33.896-23.573,42.983-42.523c9.087-18.95,18.676-40.213,38.025-48.416
				c14.605-6.191,31.496-3.223,46.412,2.176c14.916,5.399,29.062,13.131,44.544,16.587s33.379,1.791,44.613-9.409
				c15.766-15.717,12.97-49.676,33.186-58.998c18.897-8.714,39.289,10.369,61.707,5.782c16.86-3.449,19.25-43.025,35.242-58.038
				c8.955-8.407,27.198-8.789,38.183-3.294"/>
			<path style="fill:none;stroke:#ABB1B1;stroke-width:0.35;stroke-miterlimit:10;" d="M347.687,600.318
				c4.273-14.83,20.431-28.886,35.835-29.834c15.404-0.948,32.953,8.869,47.069,2.631c12.866-5.685,16.217-30.829,29.891-34.124
				c14.165-3.413,35.341,16.586,49.75,14.425c20.542-3.08,33.501-23.299,42.483-42.028c8.982-18.729,18.458-39.746,37.582-47.853
				c14.435-6.12,31.13-3.186,45.873,2.15c14.743,5.336,28.724,12.978,44.026,16.395c15.302,3.416,32.991,1.77,44.094-9.299
				c15.583-15.535,12.819-49.098,32.801-58.313c18.677-8.613,38.832,10.248,60.989,5.715c16.664-3.409,19.026-42.525,34.832-57.363
				c8.851-8.309,26.882-8.687,37.739-3.255"/>
			<path style="fill:none;stroke:#ABB1B1;stroke-width:0.35;stroke-miterlimit:10;" d="M355.993,603.195
				c4.223-14.655,20.191-28.546,35.414-29.483c15.223-0.937,32.565,8.764,46.515,2.6c12.714-5.618,16.026-30.467,29.54-33.723
				c13.999-3.373,34.925,16.391,49.165,14.256c20.3-3.044,33.107-23.025,41.983-41.534c8.876-18.509,18.241-39.278,37.14-47.29
				c14.266-6.047,30.763-3.148,45.333,2.125c14.569,5.273,28.386,12.826,43.508,16.202c15.122,3.376,32.602,1.749,43.576-9.19
				c15.399-15.352,12.668-48.521,32.414-57.626c18.457-8.512,38.375,10.128,60.272,5.648c16.468-3.369,18.802-42.025,34.422-56.689
				c8.747-8.211,26.565-8.585,37.295-3.217"/>
			<path style="fill:none;stroke:#ABB1B1;stroke-width:0.35;stroke-miterlimit:10;" d="M364.3,606.071
				c4.173-14.481,19.951-28.206,34.992-29.132c15.042-0.926,32.178,8.66,45.962,2.569c12.563-5.551,15.835-30.104,29.188-33.321
				c13.832-3.333,34.509,16.196,48.579,14.086c20.058-3.008,32.713-22.751,41.483-41.039c8.77-18.289,18.024-38.81,36.698-46.727
				c14.096-5.975,30.397-3.111,44.793,2.1c14.396,5.21,28.048,12.673,42.99,16.009c14.942,3.336,32.214,1.728,43.057-9.081
				c15.216-15.169,12.518-47.943,32.029-56.94c18.238-8.41,37.919,10.007,59.554,5.581c16.272-3.329,18.578-41.524,34.013-56.014
				c8.643-8.113,26.249-8.483,36.851-3.179"/>
			<path style="fill:none;stroke:#ABB1B1;stroke-width:0.35;stroke-miterlimit:10;" d="M372.606,608.947
				c4.123-14.306,19.71-27.866,34.57-28.781c14.86-0.915,31.79,8.556,45.408,2.538c12.412-5.484,15.645-29.741,28.836-32.92
				c13.665-3.292,34.093,16,47.994,13.916c19.817-2.971,32.319-22.477,40.984-40.545c8.664-18.068,17.807-38.343,36.256-46.164
				c13.926-5.904,30.031-3.074,44.253,2.074c14.223,5.148,27.71,12.52,42.472,15.816c14.762,3.296,31.826,1.708,42.538-8.971
				c15.033-14.986,12.367-47.365,31.643-56.254c18.018-8.309,37.462,9.887,58.837,5.513c16.076-3.289,18.355-41.024,33.603-55.339
				c8.538-8.016,25.933-8.38,36.407-3.141"/>
			<path style="fill:none;stroke:#ABB1B1;stroke-width:0.35;stroke-miterlimit:10;" d="M380.913,611.823
				c4.072-14.132,19.47-27.526,34.149-28.43c14.679-0.904,31.402,8.451,44.854,2.507c12.26-5.417,15.454-29.379,28.485-32.518
				c13.499-3.252,33.678,15.805,47.409,13.746c19.575-2.935,31.925-22.203,40.484-40.05c8.559-17.848,17.59-37.875,35.814-45.601
				c13.756-5.832,29.665-3.036,43.714,2.049c14.049,5.085,27.372,12.368,41.954,15.623c14.582,3.255,31.438,1.687,42.019-8.862
				c14.85-14.803,12.216-46.788,31.257-55.568c17.798-8.207,37.005,9.766,58.119,5.446c15.88-3.249,18.131-40.524,33.193-54.664
				c8.434-7.918,25.617-8.278,35.963-3.102"/>
			<path style="fill:none;stroke:#ABB1B1;stroke-width:0.35;stroke-miterlimit:10;" d="M389.219,614.699
				c4.022-13.957,19.229-27.187,33.727-28.079c14.498-0.893,31.014,8.347,44.3,2.476c12.109-5.351,15.263-29.016,28.133-32.117
				c13.332-3.212,33.262,15.61,46.824,13.577c19.333-2.899,31.531-21.928,39.984-39.556c8.453-17.628,17.372-37.408,35.372-45.038
				c13.586-5.76,29.298-2.999,43.174,2.024c13.876,5.022,27.034,12.215,41.436,15.43c14.402,3.215,31.05,1.666,41.501-8.752
				c14.666-14.621,12.065-46.21,30.871-54.882c17.578-8.106,36.548,9.645,57.402,5.379c15.684-3.209,17.907-40.023,32.783-53.989
				c8.33-7.82,25.3-8.176,35.519-3.064"/>
			<path style="fill:none;stroke:#ABB1B1;stroke-width:0.35;stroke-miterlimit:10;" d="M397.525,617.575
				c3.972-13.783,18.989-26.847,33.306-27.728c14.317-0.881,30.627,8.243,43.747,2.445c11.958-5.284,15.072-28.653,27.781-31.715
				c13.165-3.172,32.846,15.415,46.238,13.407c19.092-2.862,31.136-21.654,39.484-39.061c8.347-17.407,17.155-36.94,34.929-44.475
				c13.416-5.688,28.932-2.961,42.634,1.998s26.696,12.062,40.918,15.237c14.222,3.175,30.662,1.645,40.982-8.643
				c14.483-14.438,11.914-45.632,30.485-54.196c17.359-8.005,36.091,9.525,56.684,5.312c15.488-3.169,17.683-39.523,32.373-53.314
				c8.226-7.722,24.984-8.074,35.075-3.026"/>
		</g>
		<g style="clip-path:url(#SVGID_00000057140459264704558390000013485875617256609419_);">
			<path style="fill:none;stroke:#ABB1B1;stroke-width:0.35;stroke-miterlimit:10;" d="M569.906-2.993
				c-3.072,18.385-20.51,37.49-38.86,40.763c-18.35,3.273-40.767-6.073-56.839,3.368c-14.648,8.604-15.184,39.238-31.134,45.086
				c-16.522,6.058-44.701-15.001-61.69-10.411c-24.219,6.543-36.966,32.598-45.145,56.315c-8.18,23.717-16.637,50.246-38.458,62.624
				c-16.471,9.343-36.908,8.138-55.337,3.779c-18.428-4.359-36.263-11.59-55.096-13.568s-39.828,2.45-51.616,17.27
				c-16.543,20.799-8.575,60.686-31.271,74.511c-21.215,12.923-48.012-6.913-73.968,1.597c-19.521,6.401-16.933,53.659-33.84,73.654
				c-9.467,11.196-31.049,14.149-44.828,9.137"/>
			<path style="fill:none;stroke:#ABB1B1;stroke-width:0.35;stroke-miterlimit:10;" d="M561.533-4.85
				c-3.043,18.21-20.315,37.133-38.491,40.375c-18.176,3.242-40.379-6.015-56.299,3.336c-14.509,8.523-15.039,38.865-30.838,44.658
				c-16.365,6.001-44.276-14.858-61.104-10.312c-23.989,6.481-36.614,32.289-44.716,55.78s-16.479,49.768-38.093,62.029
				c-16.315,9.255-36.557,8.06-54.811,3.743s-35.918-11.48-54.572-13.438c-18.654-1.959-39.449,2.426-51.126,17.106
				c-16.386,20.601-8.493,60.109-30.974,73.803c-21.013,12.8-47.556-6.847-73.265,1.582c-19.336,6.34-16.772,53.149-33.519,72.954
				c-9.377,11.09-30.754,14.015-44.402,9.051"/>
			<path style="fill:none;stroke:#ABB1B1;stroke-width:0.35;stroke-miterlimit:10;" d="M553.159-6.708
				c-3.013,18.036-20.12,36.777-38.121,39.988s-39.992-5.957-55.758,3.304c-14.37,8.441-14.895,38.492-30.542,44.229
				c-16.208,5.943-43.852-14.716-60.518-10.213c-23.759,6.419-36.263,31.979-44.287,55.244
				c-8.024,23.266-16.321,49.291-37.727,61.434c-16.158,9.166-36.207,7.983-54.285,3.707c-18.078-4.276-35.573-11.37-54.048-13.31
				c-18.475-1.94-39.071,2.403-50.635,16.942c-16.229,20.403-8.412,59.532-30.677,73.094c-20.812,12.677-47.099-6.782-72.562,1.567
				c-19.15,6.279-16.611,52.639-33.197,72.254c-9.287,10.983-30.459,13.88-43.976,8.964"/>
			<path style="fill:none;stroke:#ABB1B1;stroke-width:0.35;stroke-miterlimit:10;" d="M544.786-8.566
				c-2.984,17.861-19.925,36.421-37.752,39.6c-17.827,3.18-39.604-5.9-55.218,3.272c-14.231,8.359-14.751,38.119-30.246,43.8
				c-16.051,5.886-43.427-14.573-59.931-10.114c-23.529,6.356-35.912,31.669-43.858,54.709
				c-7.947,23.04-16.163,48.813-37.362,60.838c-16.002,9.077-35.856,7.906-53.759,3.671c-17.903-4.234-35.229-11.259-53.525-13.181
				c-18.296-1.921-38.692,2.38-50.144,16.777c-16.071,20.206-8.33,58.955-30.379,72.386c-20.61,12.554-46.643-6.716-71.859,1.552
				c-18.964,6.218-16.45,52.129-32.875,71.554c-9.197,10.877-30.164,13.746-43.55,8.877"/>
			<path style="fill:none;stroke:#ABB1B1;stroke-width:0.35;stroke-miterlimit:10;" d="M536.412-10.423
				c-2.955,17.686-19.73,36.064-37.382,39.213c-17.653,3.149-39.217-5.842-54.678,3.24c-14.091,8.277-14.606,37.746-29.95,43.372
				c-15.894,5.828-43.002-14.431-59.345-10.016c-23.299,6.294-35.56,31.359-43.429,54.174
				c-7.869,22.815-16.005,48.336-36.996,60.243c-15.845,8.988-35.505,7.828-53.233,3.635c-17.728-4.193-34.884-11.149-53.001-13.052
				c-18.117-1.902-38.314,2.356-49.654,16.613c-15.914,20.008-8.249,58.378-30.082,71.678c-20.409,12.431-46.187-6.65-71.156,1.537
				c-18.779,6.157-16.289,51.619-32.554,70.854c-9.107,10.77-29.868,13.611-43.124,8.79"/>
			<path style="fill:none;stroke:#ABB1B1;stroke-width:0.35;stroke-miterlimit:10;" d="M528.039-12.281
				c-2.926,17.511-19.535,35.708-37.013,38.826c-17.478,3.118-38.829-5.784-54.138,3.208c-13.952,8.196-14.462,37.373-29.654,42.943
				c-15.737,5.771-42.577-14.288-58.759-9.917c-23.068,6.232-35.209,31.049-43,53.639c-7.791,22.59-15.846,47.858-36.631,59.648
				c-15.689,8.899-35.154,7.751-52.707,3.599c-17.553-4.152-34.539-11.039-52.477-12.923c-17.938-1.884-37.935,2.333-49.163,16.449
				c-15.757,19.81-8.167,57.802-29.785,70.97c-20.207,12.309-45.73-6.585-70.453,1.521c-18.593,6.096-16.128,51.109-32.232,70.153
				c-9.018,10.664-29.573,13.477-42.698,8.703"/>
			<path style="fill:none;stroke:#ABB1B1;stroke-width:0.35;stroke-miterlimit:10;" d="M519.665-14.139
				c-2.896,17.337-19.34,35.352-36.644,38.438c-17.304,3.087-38.442-5.727-53.598,3.176c-13.813,8.114-14.318,37-29.358,42.515
				c-15.58,5.713-42.152-14.146-58.172-9.818c-22.838,6.17-34.858,30.739-42.571,53.103c-7.713,22.364-15.688,47.381-36.265,59.053
				c-15.532,8.811-34.803,7.674-52.181,3.564c-17.378-4.11-34.195-10.929-51.954-12.794c-17.759-1.865-37.557,2.31-48.672,16.285
				c-15.6,19.613-8.086,57.225-29.488,70.262c-20.005,12.186-45.274-6.519-69.75,1.506c-18.408,6.036-15.967,50.599-31.91,69.453
				c-8.928,10.557-29.278,13.342-42.271,8.616"/>
			<path style="fill:none;stroke:#ABB1B1;stroke-width:0.35;stroke-miterlimit:10;" d="M511.291-15.996
				c-2.867,17.162-19.145,34.995-36.274,38.051c-17.13,3.055-38.054-5.669-53.057,3.144c-13.674,8.032-14.173,36.627-29.062,42.086
				c-15.423,5.655-41.727-14.003-57.586-9.719c-22.608,6.108-34.506,30.429-42.142,52.568c-7.636,22.139-15.53,46.903-35.9,58.457
				c-15.376,8.722-34.453,7.596-51.655,3.528c-17.202-4.069-33.85-10.819-51.43-12.665c-17.58-1.846-37.178,2.286-48.182,16.121
				c-15.442,19.415-8.004,56.648-29.191,69.553c-19.803,12.063-44.818-6.453-69.047,1.491
				c-18.222,5.975-15.806,50.089-31.589,68.753c-8.838,10.451-28.983,13.208-41.845,8.529"/>
			<path style="fill:none;stroke:#ABB1B1;stroke-width:0.35;stroke-miterlimit:10;" d="M502.918-17.854
				c-2.838,16.987-18.95,34.639-35.905,37.663c-16.955,3.024-37.667-5.611-52.517,3.112c-13.535,7.95-14.029,36.254-28.766,41.658
				c-15.266,5.598-41.302-13.86-57-9.62c-22.378,6.045-34.155,30.12-41.713,52.033c-7.558,21.913-15.372,46.425-35.534,57.862
				c-15.219,8.633-34.102,7.519-51.129,3.492c-17.027-4.027-33.505-10.709-50.906-12.536c-17.401-1.827-36.799,2.263-47.691,15.957
				c-15.285,19.217-7.923,56.071-28.893,68.845c-19.602,11.94-44.361-6.387-68.344,1.476c-18.037,5.914-15.645,49.579-31.267,68.053
				c-8.748,10.345-28.688,13.073-41.419,8.443"/>
			<path style="fill:none;stroke:#ABB1B1;stroke-width:0.35;stroke-miterlimit:10;" d="M494.544-19.712
				c-2.809,16.813-18.755,34.283-35.536,37.276c-16.781,2.993-37.279-5.553-51.977,3.08c-13.395,7.868-13.885,35.881-28.471,41.229
				c-15.109,5.54-40.877-13.718-56.413-9.521c-22.147,5.983-33.803,29.81-41.284,51.498c-7.48,21.688-15.214,45.948-35.169,57.267
				c-15.062,8.544-33.751,7.441-50.603,3.456c-16.852-3.986-33.161-10.598-50.383-12.407c-17.222-1.809-36.421,2.24-47.201,15.792
				c-15.128,19.019-7.841,55.494-28.596,68.137c-19.4,11.817-43.905-6.322-67.641,1.461c-17.851,5.853-15.484,49.069-30.945,67.353
				c-8.658,10.238-28.393,12.939-40.993,8.356"/>
			<path style="fill:none;stroke:#ABB1B1;stroke-width:0.35;stroke-miterlimit:10;" d="M486.171-21.569
				c-2.78,16.638-18.56,33.926-35.166,36.888c-16.606,2.962-36.892-5.496-51.437,3.048c-13.256,7.787-13.74,35.508-28.174,40.801
				c-14.952,5.483-40.452-13.575-55.827-9.422c-21.917,5.921-33.452,29.5-40.854,50.962c-7.402,21.462-15.056,45.47-34.803,56.672
				c-14.906,8.455-33.4,7.364-50.077,3.42c-16.677-3.944-32.816-10.488-49.859-12.278c-17.043-1.79-36.042,2.217-46.71,15.628
				c-14.971,18.822-7.76,54.918-28.299,67.429c-19.199,11.695-43.449-6.256-66.938,1.446c-17.666,5.792-15.323,48.559-30.624,66.653
				c-8.568,10.132-28.098,12.804-40.567,8.269"/>
			<path style="fill:none;stroke:#ABB1B1;stroke-width:0.35;stroke-miterlimit:10;" d="M477.797-23.427
				C475.046-6.964,459.432,10.143,443,13.074s-36.504-5.438-50.896,3.016c-13.117,7.705-13.596,35.135-27.879,40.372
				c-14.795,5.425-40.028-13.432-55.24-9.323c-21.687,5.859-33.101,29.19-40.425,50.427c-7.325,21.237-14.898,44.993-34.438,56.077
				c-14.749,8.367-33.049,7.287-49.551,3.384c-16.502-3.903-32.471-10.378-49.336-12.149c-16.864-1.771-35.664,2.193-46.219,15.464
				c-14.813,18.624-7.678,54.341-28.002,66.721c-18.997,11.572-42.992-6.19-66.234,1.43c-17.48,5.731-15.163,48.049-30.302,65.953
				c-8.478,10.025-27.802,12.67-40.141,8.182"/>
			<path style="fill:none;stroke:#ABB1B1;stroke-width:0.35;stroke-miterlimit:10;" d="M469.423-25.284
				c-2.721,16.288-18.17,33.214-34.428,36.113c-16.257,2.9-36.117-5.38-50.356,2.984c-12.978,7.623-13.452,34.762-27.583,39.944
				c-14.638,5.367-39.603-13.29-54.654-9.224c-21.457,5.797-32.75,28.88-39.996,49.892c-7.247,21.012-14.74,44.515-34.072,55.481
				c-14.593,8.278-32.699,7.209-49.025,3.348s-32.126-10.268-48.812-12.02c-16.685-1.752-35.285,2.17-45.729,15.3
				c-14.656,18.426-7.597,53.764-27.704,66.012c-18.795,11.449-42.536-6.125-65.532,1.415
				c-17.295,5.671-15.002,47.539-29.981,65.253c-8.388,9.919-27.507,12.535-39.715,8.095"/>
			<path style="fill:none;stroke:#ABB1B1;stroke-width:0.35;stroke-miterlimit:10;" d="M461.05-27.142
				c-2.692,16.113-17.975,32.857-34.058,35.726c-16.083,2.869-35.729-5.323-49.816,2.952c-12.838,7.541-13.307,34.389-27.287,39.515
				c-14.481,5.31-39.178-13.147-54.068-9.125c-21.227,5.735-32.398,28.57-39.567,49.357c-7.169,20.786-14.581,44.037-33.706,54.886
				c-14.436,8.189-32.348,7.132-48.499,3.312s-31.782-10.158-48.288-11.891c-16.506-1.733-34.907,2.147-45.238,15.136
				c-14.499,18.229-7.515,53.187-27.407,65.304c-18.594,11.326-42.08-6.059-64.828,1.4c-17.109,5.61-14.841,47.029-29.659,64.553
				c-8.298,9.813-27.212,12.401-39.289,8.008"/>
			<path style="fill:none;stroke:#ABB1B1;stroke-width:0.35;stroke-miterlimit:10;" d="M452.676-29
				c-2.663,15.939-17.78,32.501-33.689,35.339c-15.909,2.838-35.342-5.265-49.276,2.92c-12.699,7.46-13.163,34.016-26.991,39.087
				c-14.324,5.252-38.753-13.005-53.481-9.026c-20.996,5.672-32.047,28.261-39.138,48.821c-7.091,20.561-14.423,43.56-33.341,54.291
				c-14.28,8.1-31.997,7.055-47.973,3.276s-31.437-10.048-47.764-11.762c-16.327-1.714-34.528,2.124-44.748,14.972
				c-14.342,18.031-7.434,52.61-27.11,64.596c-18.392,11.203-41.623-5.993-64.125,1.385c-16.924,5.549-14.68,46.519-29.337,63.853
				c-8.208,9.706-26.917,12.266-38.863,7.921"/>
			<path style="fill:none;stroke:#ABB1B1;stroke-width:0.35;stroke-miterlimit:10;" d="M444.303-30.857
				c-2.634,15.764-17.585,32.145-33.319,34.951c-15.734,2.806-34.954-5.207-48.735,2.888c-12.56,7.378-13.019,33.643-26.695,38.658
				c-14.167,5.195-38.328-12.862-52.895-8.927c-20.766,5.61-31.695,27.951-38.709,48.286c-7.014,20.335-14.265,43.082-32.975,53.696
				c-14.123,8.011-31.646,6.977-47.447,3.24c-15.801-3.737-31.092-9.938-47.241-11.633c-16.148-1.696-34.15,2.1-44.257,14.808
				c-14.185,17.833-7.352,52.034-26.813,63.888c-18.19,11.08-41.167-5.927-63.422,1.37c-16.738,5.488-14.519,46.009-29.016,63.153
				c-8.118,9.6-26.622,12.132-38.437,7.835"/>
			<path style="fill:none;stroke:#ABB1B1;stroke-width:0.35;stroke-miterlimit:10;" d="M435.929-32.715
				c-2.605,15.589-17.39,31.788-32.95,34.564c-15.56,2.775-34.567-5.149-48.195,2.856c-12.421,7.296-12.875,33.27-26.399,38.23
				c-14.01,5.137-37.903-12.72-52.309-8.828c-20.536,5.548-31.344,27.641-38.28,47.751c-6.936,20.11-14.107,42.605-32.61,53.1
				c-13.966,7.922-31.295,6.9-46.921,3.204c-15.626-3.696-30.748-9.827-46.717-11.504s-33.771,2.077-43.766,14.644
				c-14.027,17.636-7.271,51.457-26.515,63.179c-17.989,10.958-40.711-5.862-62.719,1.354
				c-16.552,5.427-14.358,45.499-28.694,62.453c-8.028,9.493-26.327,11.997-38.011,7.748"/>
			<path style="fill:none;stroke:#ABB1B1;stroke-width:0.35;stroke-miterlimit:10;" d="M427.555-34.573
				C424.98-19.158,410.36-3.141,394.975-0.396c-15.385,2.744-34.18-5.092-47.655,2.824c-12.281,7.214-12.73,32.897-26.103,37.801
				c-13.853,5.08-37.478-12.577-51.722-8.729c-20.306,5.486-30.993,27.331-37.851,47.215c-6.858,19.884-13.949,42.127-32.244,52.505
				c-13.81,7.834-30.944,6.823-46.395,3.168c-15.451-3.654-30.403-9.717-46.193-11.375c-15.79-1.658-33.392,2.054-43.276,14.479
				c-13.87,17.438-7.189,50.88-26.218,62.471c-17.787,10.835-40.254-5.796-62.016,1.339c-16.367,5.366-14.197,44.989-28.372,61.753
				c-7.938,9.387-26.032,11.863-37.585,7.661"/>
			<path style="fill:none;stroke:#ABB1B1;stroke-width:0.35;stroke-miterlimit:10;" d="M419.182-36.43
				c-2.546,15.24-17,31.076-32.211,33.789c-15.211,2.713-33.792-5.034-47.115,2.792c-12.142,7.132-12.586,32.525-25.807,37.373
				c-13.696,5.022-37.053-12.435-51.136-8.63c-20.076,5.424-30.641,27.021-37.422,46.68c-6.78,19.659-13.791,41.65-31.879,51.91
				c-13.653,7.745-30.594,6.745-45.869,3.133c-15.276-3.613-30.059-9.607-45.67-11.246c-15.611-1.639-33.014,2.03-42.785,14.315
				c-13.713,17.24-7.108,50.303-25.921,61.763c-17.585,10.712-39.798-5.73-61.313,1.324c-16.181,5.306-14.036,44.479-28.051,61.053
				c-7.848,9.281-25.737,11.728-37.159,7.574"/>
			<path style="fill:none;stroke:#ABB1B1;stroke-width:0.35;stroke-miterlimit:10;" d="M410.808-38.288
				c-2.517,15.065-16.806,30.719-31.842,33.401c-15.036,2.682-33.405-4.976-46.574,2.76c-12.003,7.051-12.442,32.152-25.511,36.944
				c-13.539,4.964-36.629-12.292-50.55-8.531c-19.846,5.361-30.29,26.711-36.993,46.145c-6.703,19.434-13.632,41.172-31.513,51.315
				c-13.497,7.656-30.243,6.668-45.343,3.097c-15.1-3.572-29.714-9.497-45.146-11.117c-15.432-1.62-32.635,2.007-42.295,14.151
				c-13.556,17.043-7.026,49.726-25.624,61.055c-17.384,10.589-39.341-5.665-60.61,1.309c-15.996,5.245-13.875,43.969-27.729,60.352
				c-7.758,9.174-25.442,11.594-36.732,7.487"/>
			<path style="fill:none;stroke:#ABB1B1;stroke-width:0.35;stroke-miterlimit:10;" d="M402.435-40.146
				c-2.488,14.89-16.611,30.363-31.473,33.014c-14.862,2.651-33.017-4.918-46.034,2.728c-11.864,6.969-12.297,31.779-25.215,36.515
				c-13.381,4.907-36.204-12.149-49.963-8.432c-19.615,5.299-29.939,26.402-36.563,45.61c-6.625,19.208-13.474,40.694-31.148,50.719
				c-13.34,7.567-29.892,6.591-44.817,3.061c-14.925-3.53-29.369-9.387-44.622-10.988s-32.257,1.984-41.804,13.987
				c-13.398,16.845-6.945,49.15-25.327,60.347c-17.182,10.466-38.885-5.599-59.907,1.294c-15.81,5.184-13.714,43.459-27.407,59.653
				c-7.668,9.068-25.146,11.459-36.306,7.4"/>
			<path style="fill:none;stroke:#ABB1B1;stroke-width:0.35;stroke-miterlimit:10;" d="M394.061-42.003
				c-2.459,14.715-16.416,30.007-31.103,32.626s-32.63-4.861-45.494,2.696c-11.724,6.887-12.153,31.406-24.919,36.087
				c-13.224,4.849-35.779-12.007-49.377-8.333c-19.385,5.237-29.587,26.092-36.134,45.074
				c-6.547,18.983-13.316,40.217-30.782,50.124c-13.184,7.478-29.541,6.513-44.291,3.025c-14.75-3.489-29.024-9.276-44.099-10.859
				s-31.878,1.961-41.313,13.823c-13.241,16.647-6.863,48.573-25.029,59.638c-16.98,10.343-38.429-5.533-59.204,1.279
				c-15.625,5.123-13.553,42.949-27.086,58.952c-7.578,8.961-24.851,11.325-35.88,7.314"/>
			<path style="fill:none;stroke:#ABB1B1;stroke-width:0.35;stroke-miterlimit:10;" d="M385.688-43.861
				c-2.429,14.541-16.221,29.65-30.734,32.239C340.44-9.033,322.711-16.425,310-8.958c-11.585,6.805-12.009,31.033-24.623,35.658
				c-13.067,4.792-35.354-11.864-48.79-8.234c-19.155,5.175-29.236,25.782-35.705,44.539c-6.469,18.757-13.158,39.739-30.417,49.529
				c-13.027,7.39-29.19,6.436-43.765,2.989c-14.575-3.447-28.68-9.166-43.575-10.73c-14.895-1.564-31.5,1.937-40.823,13.659
				c-13.084,16.45-6.782,47.996-24.732,58.93c-16.779,10.221-37.973-5.467-58.501,1.263c-15.439,5.062-13.392,42.439-26.764,58.252
				c-7.488,8.855-24.556,11.191-35.454,7.227"/>
			<path style="fill:none;stroke:#ABB1B1;stroke-width:0.35;stroke-miterlimit:10;" d="M377.314-45.719
				c-2.4,14.366-16.026,29.294-30.365,31.852c-14.339,2.558-31.855-4.745-44.413,2.632c-11.446,6.724-11.864,30.66-24.328,35.23
				c-12.91,4.734-34.929-11.722-48.204-8.135c-18.925,5.113-28.885,25.472-35.276,44.004c-6.392,18.532-13,39.262-30.051,48.934
				c-12.87,7.301-28.84,6.359-43.239,2.953c-14.4-3.406-28.335-9.056-43.051-10.602c-14.716-1.545-31.121,1.914-40.332,13.494
				c-12.927,16.252-6.7,47.419-24.435,58.222c-16.577,10.098-37.516-5.402-57.798,1.248c-15.254,5.001-13.231,41.929-26.442,57.552
				c-7.398,8.748-24.261,11.056-35.028,7.14"/>
			<path style="fill:none;stroke:#ABB1B1;stroke-width:0.35;stroke-miterlimit:10;" d="M368.94-47.576
				c-2.371,14.191-15.831,28.938-29.995,31.464c-14.164,2.526-31.467-4.688-43.873,2.6c-11.307,6.642-11.72,30.287-24.032,34.801
				c-12.753,4.676-34.504-11.579-47.618-8.036c-18.695,5.05-28.533,25.162-34.847,43.469c-6.314,18.306-12.842,38.784-29.685,48.338
				c-12.714,7.212-28.489,6.281-42.713,2.917c-14.225-3.364-27.991-8.946-42.528-10.473c-14.537-1.526-30.743,1.891-39.842,13.33
				c-12.769,16.054-6.619,46.842-24.138,57.514c-16.375,9.975-37.06-5.336-57.095,1.233c-15.068,4.941-13.07,41.419-26.121,56.852
				c-7.308,8.642-23.966,10.922-34.602,7.053"/>
			<path style="fill:none;stroke:#ABB1B1;stroke-width:0.35;stroke-miterlimit:10;" d="M360.567-49.434
				c-2.342,14.016-15.636,28.581-29.626,31.077c-13.99,2.495-31.08-4.63-43.333,2.568c-11.168,6.56-11.576,29.914-23.736,34.373
				c-12.596,4.619-34.079-11.436-47.031-7.937c-18.464,4.988-28.182,24.852-34.418,42.933c-6.236,18.081-12.684,38.306-29.32,47.743
				c-12.557,7.123-28.138,6.204-42.187,2.881c-14.049-3.323-27.646-8.836-42.004-10.344c-14.358-1.508-30.364,1.867-39.351,13.166
				c-12.612,15.856-6.537,46.266-23.84,56.805c-16.174,9.852-36.603-5.27-56.392,1.218c-14.883,4.88-12.909,40.909-25.799,56.152
				c-7.218,8.536-23.671,10.787-34.176,6.966"/>
			<path style="fill:none;stroke:#ABB1B1;stroke-width:0.35;stroke-miterlimit:10;" d="M352.193-51.292
				c-2.313,13.842-15.441,28.225-29.257,30.689c-13.816,2.464-30.692-4.572-42.793,2.536c-11.028,6.478-11.431,29.541-23.44,33.944
				c-12.439,4.561-33.654-11.294-46.445-7.838c-18.234,4.926-27.831,24.542-33.989,42.398
				c-6.158,17.856-12.526,37.829-28.954,47.148c-12.401,7.034-27.787,6.127-41.662,2.845c-13.874-3.281-27.301-8.726-41.48-10.215
				s-29.985,1.844-38.86,13.002c-12.455,15.659-6.456,45.689-23.543,56.097c-15.972,9.729-36.147-5.205-55.689,1.203
				c-14.697,4.819-12.748,40.399-25.478,55.452c-7.128,8.429-23.376,10.652-33.75,6.879"/>
			<path style="fill:none;stroke:#ABB1B1;stroke-width:0.35;stroke-miterlimit:10;" d="M343.82-53.149
				c-2.283,13.667-15.246,27.869-28.887,30.302c-13.641,2.433-30.305-4.514-42.252,2.504c-10.889,6.396-11.287,29.168-23.144,33.516
				c-12.282,4.504-33.23-11.151-45.859-7.739c-18.004,4.864-27.479,24.233-33.56,41.863c-6.081,17.63-12.368,37.351-28.589,46.553
				c-12.244,6.946-27.436,6.049-41.136,2.809c-13.699-3.24-26.956-8.616-40.957-10.086s-29.607,1.821-38.37,12.838
				c-12.298,15.461-6.374,45.112-23.246,55.389c-15.771,9.606-35.691-5.139-54.986,1.187c-14.511,4.758-12.587,39.889-25.156,54.752
				c-7.038,8.323-23.081,10.518-33.324,6.792"/>
			<path style="fill:none;stroke:#ABB1B1;stroke-width:0.35;stroke-miterlimit:10;" d="M335.446-55.007
				c-2.254,13.492-15.051,27.512-28.518,29.914s-29.917-4.457-41.712,2.472c-10.75,6.314-11.143,28.795-22.848,33.087
				c-12.125,4.446-32.805-11.009-45.272-7.641c-17.774,4.802-27.128,23.923-33.131,41.327
				c-6.003,17.405-12.209,36.874-28.223,45.958c-12.088,6.857-27.086,5.972-40.61,2.773c-13.524-3.199-26.612-8.505-40.433-9.957
				S25.471,84.725,16.82,95.601c-12.14,15.263-6.293,44.535-22.949,54.681c-15.569,9.484-35.235-5.073-54.283,1.172
				c-14.326,4.697-12.426,39.379-24.834,54.052c-6.948,8.216-22.786,10.384-32.898,6.706"/>
			<path style="fill:none;stroke:#ABB1B1;stroke-width:0.35;stroke-miterlimit:10;" d="M327.072-56.865
				c-2.225,13.318-14.856,27.156-28.148,29.527c-13.292,2.371-29.53-4.399-41.172,2.44C247.141-18.665,246.754,3.524,235.2,7.76
				c-11.968,4.389-32.38-10.866-44.686-7.542c-17.544,4.739-26.776,23.613-32.702,40.792c-5.925,17.179-12.051,36.396-27.858,45.362
				c-11.931,6.768-26.735,5.895-40.084,2.737c-13.349-3.157-26.267-8.395-39.909-9.828c-13.642-1.433-28.85,1.774-37.389,12.51
				c-11.983,15.066-6.211,43.958-22.652,53.973c-15.367,9.361-34.778-5.007-53.58,1.157c-14.14,4.636-12.265,38.869-24.513,53.352
				c-6.858,8.11-22.491,10.249-32.472,6.619"/>
			<path style="fill:none;stroke:#ABB1B1;stroke-width:0.35;stroke-miterlimit:10;" d="M318.699-58.722
				c-2.196,13.143-14.661,26.8-27.779,29.14c-13.118,2.34-29.142-4.341-40.632,2.408c-10.471,6.151-10.854,28.049-22.256,32.23
				c-11.811,4.331-31.955-10.724-44.1-7.443c-17.313,4.677-26.425,23.303-32.272,40.257c-5.847,16.954-11.893,35.919-27.492,44.767
				c-11.775,6.679-26.384,5.817-39.558,2.701c-13.174-3.116-25.922-8.285-39.385-9.699C31.762,74.225,16.753,77.39,8.327,87.984
				c-11.826,14.868-6.13,43.382-22.354,53.264c-15.166,9.238-34.322-4.942-52.876,1.142c-13.955,4.576-12.104,38.359-24.191,52.652
				c-6.768,8.004-22.195,10.115-32.046,6.532"/>
			<path style="fill:none;stroke:#ABB1B1;stroke-width:0.35;stroke-miterlimit:10;" d="M310.325-60.58
				c-2.167,12.968-14.466,26.443-27.41,28.752c-12.943,2.309-28.755-4.284-40.091,2.376c-10.332,6.069-10.71,27.676-21.96,31.801
				c-11.654,4.273-31.53-10.581-43.513-7.344c-17.083,4.615-26.074,22.993-31.843,39.722c-5.77,16.729-11.735,35.441-27.127,44.172
				c-11.618,6.59-26.033,5.74-39.032,2.665c-12.998-3.074-25.578-8.175-38.862-9.57C27.203,70.6,12.395,73.723,4.08,84.176
				c-11.669,14.67-6.048,42.805-22.057,52.556c-14.964,9.115-33.865-4.876-52.173,1.127c-13.769,4.515-11.944,37.849-23.869,51.952
				c-6.678,7.897-21.9,9.98-31.619,6.445"/>
		</g>
		<path style="clip-path:url(#SVGID_00000057140459264704558390000013485875617256609419_);fill:#F8F9F9;" d="M548.084-19.321
			c-10.323,44.778-50.015,81.254-95.504,87.765c-27.119,3.882-54.535-2.02-81.682-5.707c-27.147-3.687-56.101-4.879-80.566,7.451
			c-26.806,13.509-43.821,40.996-68.88,57.522c-40.335,26.6-86.283-11.585-132.3,19.093c-24.144,16.096-30.404,56.336-48.288,74.221
			c-15.952,15.952-43.817,16.096-70.415,13.785v-245.39L548.084-19.321z"/>
		<path style="clip-path:url(#SVGID_00000057140459264704558390000013485875617256609419_);fill:#FFFFFF;" d="M-88.566,176.727
			c43.609,15.775,96.492,0.869,125.442-35.36c17.751-22.214,28.615-52.517,54.655-63.941c18.893-8.288,40.569-4.054,61.061-1.658
			c21.12,2.47,36.939-1.098,53.279-15.484c11.734-10.331,22.277-22.699,36.621-28.919c23.889-10.359,51.636-0.481,75.391,5.278
			c20.875,5.061,43.388,7.041,62.303-4.985c19.634-12.483,31.408-33.968,50.135-47.597c23.681-17.234,51.86-25.439,80.936-19.479
			v-38.708H-79.525L-88.566,176.727z"/>
		<path style="clip-path:url(#SVGID_00000057140459264704558390000013485875617256609419_);fill:#FFFFFF;" d="M822.88,321.758
			c-39.451-14.271-87.29-0.786-113.479,31.988c-16.058,20.096-25.886,47.509-49.443,57.844c-17.091,7.498-36.7,3.668-55.238,1.5
			c-19.106-2.234-33.416,0.993-48.198,14.007c-10.615,9.346-20.153,20.534-33.129,26.161c-21.611,9.371-46.711,0.435-68.202-4.775
			c-18.884-4.578-39.251-6.369-56.362,4.509c-17.761,11.292-28.412,30.729-45.354,43.058c-21.422,15.59-46.915,23.013-73.218,17.621
			v35.017h534.443L822.88,321.758z"/>
		<g style="clip-path:url(#SVGID_00000057140459264704558390000013485875617256609419_);">
			<path style="fill:#FED49C;" d="M53.368,247.447c-14.715,0-26.686-11.971-26.686-26.686c0-14.714,11.971-26.685,26.686-26.685
				c14.714,0,26.684,11.971,26.684,26.685C80.053,235.477,68.082,247.447,53.368,247.447z M53.368,197.077
				c-13.061,0-23.686,10.625-23.686,23.685c0,13.061,10.625,23.686,23.686,23.686c13.06,0,23.684-10.625,23.684-23.686
				C77.053,207.702,66.428,197.077,53.368,197.077z"/>
		</g>
		<g style="clip-path:url(#SVGID_00000057140459264704558390000013485875617256609419_);">
			<path style="fill:#FED49C;" d="M635.351,16.212c-14.715,0-26.686-11.971-26.686-26.686c0-14.714,11.971-26.684,26.686-26.684
				c14.714,0,26.685,11.971,26.685,26.684C662.035,4.242,650.065,16.212,635.351,16.212z M635.351-34.158
				c-13.061,0-23.686,10.625-23.686,23.684c0,13.061,10.625,23.686,23.686,23.686c13.06,0,23.685-10.625,23.685-23.686
				C659.035-23.533,648.41-34.158,635.351-34.158z"/>
		</g>
		<g style="clip-path:url(#SVGID_00000057140459264704558390000013485875617256609419_);">
			<path style="fill:#FED49C;" d="M685.452,82.358c0,1.168-0.947,2.115-2.115,2.115c-1.168,0-2.115-0.947-2.115-2.115
				c0-1.168,0.947-2.115,2.115-2.115C684.505,80.243,685.452,81.19,685.452,82.358z M700.596,80.243
				c-1.168,0-2.115,0.947-2.115,2.115c0,1.168,0.947,2.115,2.115,2.115c1.168,0,2.115-0.947,2.115-2.115
				C702.711,81.19,701.764,80.243,700.596,80.243z M700.596,80.243c-1.168,0-2.115,0.947-2.115,2.115
				c0,1.168,0.947,2.115,2.115,2.115c1.168,0,2.115-0.947,2.115-2.115C702.711,81.19,701.764,80.243,700.596,80.243z
				 M681.221,65.098c0,1.168,0.947,2.115,2.115,2.115c1.168,0,2.115-0.947,2.115-2.115c0-1.168-0.947-2.115-2.115-2.115
				C682.168,62.983,681.221,63.93,681.221,65.098z M717.856,80.243c-1.168,0-2.115,0.947-2.115,2.115
				c0,1.168,0.947,2.115,2.115,2.115c1.168,0,2.115-0.947,2.115-2.115C719.971,81.19,719.024,80.243,717.856,80.243z
				 M681.221,47.838c0,1.168,0.947,2.115,2.115,2.115c1.168,0,2.115-0.947,2.115-2.115c0-1.168-0.947-2.115-2.115-2.115
				C682.168,45.723,681.221,46.67,681.221,47.838z M698.481,65.098c0,1.168,0.947,2.115,2.115,2.115
				c1.168,0,2.115-0.947,2.115-2.115c0-1.168-0.947-2.115-2.115-2.115C699.428,62.983,698.481,63.93,698.481,65.098z
				 M698.481,47.838c0,1.168,0.947,2.115,2.115,2.115c1.168,0,2.115-0.947,2.115-2.115c0-1.168-0.947-2.115-2.115-2.115
				C699.428,45.723,698.481,46.67,698.481,47.838z M715.741,65.098c0,1.168,0.947,2.115,2.115,2.115
				c1.168,0,2.115-0.947,2.115-2.115c0-1.168-0.947-2.115-2.115-2.115C716.688,62.983,715.741,63.93,715.741,65.098z
				 M715.741,47.838c0,1.168,0.947,2.115,2.115,2.115c1.168,0,2.115-0.947,2.115-2.115c0-1.168-0.947-2.115-2.115-2.115
				C716.688,45.723,715.741,46.67,715.741,47.838z M681.221,30.619c0,1.168,0.947,2.115,2.115,2.115
				c1.168,0,2.115-0.947,2.115-2.115c0-1.168-0.947-2.115-2.115-2.115C682.168,28.504,681.221,29.451,681.221,30.619z
				 M698.481,30.619c0,1.168,0.947,2.115,2.115,2.115c1.168,0,2.115-0.947,2.115-2.115c0-1.168-0.947-2.115-2.115-2.115
				C699.428,28.504,698.481,29.451,698.481,30.619z M715.741,30.619c0,1.168,0.947,2.115,2.115,2.115
				c1.168,0,2.115-0.947,2.115-2.115c0-1.168-0.947-2.115-2.115-2.115C716.688,28.504,715.741,29.451,715.741,30.619z"/>
			<path style="fill:#FED49C;" d="M34.259,469.381c0,1.168-0.947,2.115-2.115,2.115c-1.168,0-2.115-0.947-2.115-2.115
				c0-1.168,0.947-2.115,2.115-2.115C33.312,467.266,34.259,468.213,34.259,469.381z M49.404,467.266
				c-1.168,0-2.115,0.947-2.115,2.115c0,1.168,0.947,2.115,2.115,2.115c1.168,0,2.115-0.947,2.115-2.115
				C51.519,468.213,50.572,467.266,49.404,467.266z M49.404,467.266c-1.168,0-2.115,0.947-2.115,2.115
				c0,1.168,0.947,2.115,2.115,2.115c1.168,0,2.115-0.947,2.115-2.115C51.519,468.213,50.572,467.266,49.404,467.266z
				 M30.029,452.121c0,1.168,0.947,2.115,2.115,2.115c1.168,0,2.115-0.947,2.115-2.115c0-1.168-0.947-2.115-2.115-2.115
				C30.976,450.006,30.029,450.953,30.029,452.121z M66.663,467.266c-1.168,0-2.115,0.947-2.115,2.115
				c0,1.168,0.947,2.115,2.115,2.115c1.168,0,2.115-0.947,2.115-2.115C68.779,468.213,67.832,467.266,66.663,467.266z
				 M30.029,434.861c0,1.168,0.947,2.115,2.115,2.115c1.168,0,2.115-0.947,2.115-2.115c0-1.168-0.947-2.115-2.115-2.115
				C30.976,432.746,30.029,433.693,30.029,434.861z M47.289,452.121c0,1.168,0.947,2.115,2.115,2.115
				c1.168,0,2.115-0.947,2.115-2.115c0-1.168-0.947-2.115-2.115-2.115C48.236,450.006,47.289,450.953,47.289,452.121z
				 M47.289,434.861c0,1.168,0.947,2.115,2.115,2.115c1.168,0,2.115-0.947,2.115-2.115c0-1.168-0.947-2.115-2.115-2.115
				C48.236,432.746,47.289,433.693,47.289,434.861z M64.548,452.121c0,1.168,0.947,2.115,2.115,2.115s2.115-0.947,2.115-2.115
				c0-1.168-0.947-2.115-2.115-2.115S64.548,450.953,64.548,452.121z M64.548,434.861c0,1.168,0.947,2.115,2.115,2.115
				s2.115-0.947,2.115-2.115c0-1.168-0.947-2.115-2.115-2.115S64.548,433.693,64.548,434.861z M30.029,417.642
				c0,1.168,0.947,2.115,2.115,2.115c1.168,0,2.115-0.947,2.115-2.115c0-1.168-0.947-2.115-2.115-2.115
				C30.976,415.527,30.029,416.474,30.029,417.642z M47.289,417.642c0,1.168,0.947,2.115,2.115,2.115
				c1.168,0,2.115-0.947,2.115-2.115c0-1.168-0.947-2.115-2.115-2.115C48.236,415.527,47.289,416.474,47.289,417.642z
				 M64.548,417.642c0,1.168,0.947,2.115,2.115,2.115s2.115-0.947,2.115-2.115c0-1.168-0.947-2.115-2.115-2.115
				S64.548,416.474,64.548,417.642z M30.029,400.423c0,1.168,0.947,2.115,2.115,2.115c1.168,0,2.115-0.947,2.115-2.115
				c0-1.168-0.947-2.115-2.115-2.115C30.976,398.308,30.029,399.255,30.029,400.423z M47.289,400.423
				c0,1.168,0.947,2.115,2.115,2.115c1.168,0,2.115-0.947,2.115-2.115c0-1.168-0.947-2.115-2.115-2.115
				C48.236,398.308,47.289,399.255,47.289,400.423z M64.548,400.423c0,1.168,0.947,2.115,2.115,2.115s2.115-0.947,2.115-2.115
				c0-1.168-0.947-2.115-2.115-2.115S64.548,399.255,64.548,400.423z M30.029,383.205c0,1.168,0.947,2.115,2.115,2.115
				c1.168,0,2.115-0.947,2.115-2.115c0-1.168-0.947-2.115-2.115-2.115C30.976,381.09,30.029,382.037,30.029,383.205z
				 M47.289,383.205c0,1.168,0.947,2.115,2.115,2.115c1.168,0,2.115-0.947,2.115-2.115c0-1.168-0.947-2.115-2.115-2.115
				C48.236,381.09,47.289,382.037,47.289,383.205z M64.548,383.205c0,1.168,0.947,2.115,2.115,2.115s2.115-0.947,2.115-2.115
				c0-1.168-0.947-2.115-2.115-2.115S64.548,382.037,64.548,383.205z M30.029,365.986c0,1.168,0.947,2.115,2.115,2.115
				c1.168,0,2.115-0.947,2.115-2.115c0-1.168-0.947-2.115-2.115-2.115C30.976,363.871,30.029,364.818,30.029,365.986z
				 M47.289,365.986c0,1.168,0.947,2.115,2.115,2.115c1.168,0,2.115-0.947,2.115-2.115c0-1.168-0.947-2.115-2.115-2.115
				C48.236,363.871,47.289,364.818,47.289,365.986z M64.548,365.986c0,1.168,0.947,2.115,2.115,2.115s2.115-0.947,2.115-2.115
				c0-1.168-0.947-2.115-2.115-2.115S64.548,364.818,64.548,365.986z"/>
		</g>
		
			<rect x="-6.888" y="16.449" style="clip-path:url(#SVGID_00000057140459264704558390000013485875617256609419_);fill:#FED49C;" width="160.382" height="3.529"/>
		<g style="clip-path:url(#SVGID_00000057140459264704558390000013485875617256609419_);">
			<circle style="fill:#E1E1E1;" cx="97.19" cy="108.499" r="5.067"/>
			<circle style="fill:#E1E1E1;" cx="114.583" cy="108.499" r="5.067"/>
			<circle style="fill:#E1E1E1;" cx="131.977" cy="108.499" r="5.067"/>
			<circle style="fill:#E1E1E1;" cx="149.37" cy="108.499" r="5.067"/>
			<path style="fill:#E1E1E1;" d="M171.831,108.499c0,2.799-2.269,5.067-5.067,5.067c-2.799,0-5.067-2.269-5.067-5.067
				c0-2.799,2.269-5.067,5.067-5.067C169.562,103.432,171.831,105.701,171.831,108.499z"/>
			<circle style="fill:#E1E1E1;" cx="184.157" cy="108.499" r="5.067"/>
		</g>
		<g style="clip-path:url(#SVGID_00000057140459264704558390000013485875617256609419_);">
			<circle style="fill:#E1E1E1;" cx="629.144" cy="466.212" r="5.067"/>
			<circle style="fill:#E1E1E1;" cx="646.537" cy="466.212" r="5.067"/>
			<circle style="fill:#E1E1E1;" cx="663.931" cy="466.212" r="5.067"/>
			<circle style="fill:#E1E1E1;" cx="681.324" cy="466.212" r="5.067"/>
			<circle style="fill:#E1E1E1;" cx="698.717" cy="466.212" r="5.067"/>
			<circle style="fill:#E1E1E1;" cx="716.111" cy="466.212" r="5.067"/>
		</g>
		<g style="clip-path:url(#SVGID_00000057140459264704558390000013485875617256609419_);">
			<path style="fill:#FED49C;" d="M686.968,401.192c-21.813,0-39.559-17.746-39.559-39.559c0-21.813,17.746-39.56,39.559-39.56
				c21.812,0,39.559,17.746,39.559,39.56C726.527,383.446,708.78,401.192,686.968,401.192z M686.968,325.074
				c-20.158,0-36.559,16.4-36.559,36.56c0,20.158,16.4,36.559,36.559,36.559c20.158,0,36.559-16.4,36.559-36.559
				C723.527,341.474,707.126,325.074,686.968,325.074z"/>
		</g>
	</g>
</g>
</svg>
