<svg xmlns="http://www.w3.org/2000/svg" width="300" height="224" fill="none" viewBox="0 0 300 224"><path fill="#E1C95A" d="m176.276 69.55 9.362-46.704L158.396 7l-9.376 46.796"/><path fill="#E1C95A" d="m185.638 22.846-9.362 46.704 10.739 6.207-.069 24.499c15.888 19.643 26.564 45.543 26.501 68.129-.044 16.646-5.919 28.356-15.385 33.861v.006l-20.953 12.185h-.003c-9.591 5.577-22.872 4.794-37.528-3.678C110.442 193.923 86.905 153.117 87 119.61c.048-16.643 5.92-28.35 15.388-33.855l11.423-6.644.059-21.324 20.954-12.189 14.196 8.198L158.396 7z"/><path fill="#FDF684" d="m149.839 78.919 15.941 9.23-.068 24.463c15.831 19.612 26.469 45.474 26.407 68.02-.095 33.453-23.702 46.945-52.731 30.138-29.026-16.81-52.482-57.551-52.388-91.003.066-22.55 10.813-36.026 26.704-37.268l.068-24.463 8.961 5.19m34.613 29.746-3.89-2.252-31.307-18.126-.029 10.336c5.507.932 11.435 3.131 17.608 6.705 6.171 3.574 12.09 8.233 17.588 13.672z"/><path fill="#FDF684" d="m154.032 90.79-27.494-15.774-15.163-48.973 27.531 15.9z"/><path stroke="#000" stroke-dasharray="2 2" stroke-linecap="round" stroke-linejoin="round" stroke-miterlimit="10" stroke-width="0.2" d="M124.146 73.442a26 26 0 0 1 1.868-.933m-16.618 48.09c-.709-4.425-1.079-8.796-1.067-13.049.044-15.974 5.44-27.397 14.218-33.145m-.021 83.045c-6.28-11.361-10.821-23.629-12.911-35.552m76.41 83.859c-6.477.386-13.789-1.245-21.564-5.106m-6.759-107.734 8.417-4.82m-8.446 15.159 8.417-4.916"/><path stroke="#000" stroke-linecap="round" stroke-linejoin="round" stroke-miterlimit="10" stroke-width="0.2" d="M149.02 53.796 158.396 7l27.242 15.846-9.362 46.704 10.739 6.207-.069 24.499m-37.926-46.46 27.256 15.75m-27.256-15.75-8.06-4.654m72.487 119.243c.063-22.586-10.613-48.486-26.501-68.129m26.501 68.129c-.044 16.646-5.919 28.362-15.385 33.867l-20.953 12.185c-9.591 5.577-22.875 4.794-37.531-3.678C110.442 193.923 86.905 153.117 87 119.61c.048-16.643 5.92-28.35 15.388-33.855m111.059 82.63-20.953 12.189m-5.548-80.318-20.953 12.189m-63.605-26.69 11.423-6.644.059-21.324 6.279-3.653m-17.761 31.621c3.389-1.979 7.2-3.144 11.411-3.472l.068-24.502 8.993 5.198m29.177-24.237 27.257 15.75m-16.426 7.255 9.359-46.7M155.18 23.05l27.259 15.75m-32.376 39.896 15.998 9.245-.068 24.503m0 0c15.887 19.642 26.563 45.546 26.501 68.129m0 0c-.063 22.191-10.477 35.613-25.966 37.256m20.151-13.028 20.9-12.096m-16.456.711 20.954-12.189m-20.6-13.381 20.954-12.189m-24.168-1.598 20.954-12.188m-25.844-.896 20.953-12.189m-28.368-2.086 20.98-12.144m-30.874-26.615 20.954-12.188m-64.767 6.957 8.943-5.201m26.403 15.262-3.904-2.256-31.418-18.154-.03 10.352c5.527.935 11.476 3.137 17.671 6.716 6.193 3.58 12.133 8.246 17.651 13.695zm-3.898-2.258-27.203-15.718L111.495 26l27.238 15.843z"/><path fill="#E1C95A" stroke="#000" stroke-linecap="round" stroke-linejoin="round" stroke-miterlimit="10" stroke-width="0.2" d="m114.179 160.011 6.288-3.654 13.979 8.072-6.285 3.654zm30.191 17.428 6.285-3.651 13.979 8.069-6.285 3.653zm13.979 8.071 6.285-3.653-.051 18.628-6.287 3.651z"/><path fill="#FDF684" stroke="#000" stroke-linecap="round" stroke-linejoin="round" stroke-miterlimit="10" stroke-width="0.2" d="m144.537 118.868-.167 58.571 13.979 8.071-.053 18.626-44.167-25.499.05-18.626 13.982 8.072.093-32.233-8.203 4.673-11.425-19.785 19.702-11.229z"/><path fill="#000" d="m141.189 116.935-.161 62.24 17.311 9.994.01-3.659-13.979-8.071.167-58.571z"/><path fill="#E1C95A" stroke="#000" stroke-linecap="round" stroke-linejoin="round" stroke-miterlimit="10" stroke-width="0.2" d="m144.537 118.868 6.284-3.654-.166 58.574-6.285 3.651z"/><path fill="#E1C95A" stroke="#000" stroke-linecap="round" stroke-linejoin="round" stroke-miterlimit="10" stroke-width="0.2" d="m128.328 109.509 6.285-3.651 16.208 9.356-6.284 3.654z"/></svg>