<svg xmlns="http://www.w3.org/2000/svg" width="300" height="224" fill="none" viewBox="0 0 300 224"><path fill="#FF9B50" d="m245.759 82.994.142 81.252-.239 1.193-.719 1.041-.717.463-.205.05-.046-1.244-.778-1.171-.875-.692-1.865-1.129-99.818-57.588-4.976-2.757-.999-.28-1.19-.119-.149-.088-.273-.885-.21-.71-.002-.614-.013-.848.019-79.11.019-.57.11-.612.316-.684.575-.442.45-.157 2.58.011 106.348 61.284z"/><path stroke="#000" stroke-linecap="round" stroke-linejoin="round" stroke-miterlimit="10" stroke-width="0.2" d="M133.325 101.924c-.307-.737-.485-1.501-.485-2.209V19.54c0-2.008 1.427-2.83 3.172-1.821l106.319 61.364c1.74 1.004 3.156 3.474 3.156 5.482v80.175c0 1.481-.767 2.315-1.865 2.253"/><path fill="#FF9B50" stroke="#000" stroke-linecap="round" stroke-linejoin="round" stroke-miterlimit="10" stroke-width="0.2" d="m244.713 77.706-106.319-61.37c-.878-.51-1.685-.549-2.256-.203l-2.272 1.317h.006c.565-.274 1.311-.203 2.135.269l106.318 61.364c1.74 1.005 3.156 3.474 3.156 5.482v80.175c0 .999-.346 1.701-.916 2.036l2.277-1.323c.626-.296 1.032-1.026 1.032-2.09V83.188c0-2.008-1.421-4.472-3.161-5.482"/><path fill="#FF9B50" stroke="#000" stroke-linecap="round" stroke-linejoin="round" stroke-miterlimit="10" stroke-width="0.2" d="m242.325 161.656-106.313-61.37V21.368l106.313 61.37zm-72.099 47.915c-1.74 1.004-4.588 1.004-6.334 0l-106.307-61.37c-1.74-1.01-1.74-2.65 0-3.655l72.461-41.835c1.745-1.004 4.588-1.004 6.334 0l81.941 47.306 24.372 14.07c1.74 1.004 1.74 2.65 0 3.654z"/><path fill="#FA7C1E" stroke="#000" stroke-linecap="round" stroke-linejoin="round" stroke-miterlimit="10" stroke-width="0.2" d="m136.489 111.42-5.192-3.002 2.596-1.498 5.197 3.002zm8.76 5.053-5.203-2.996 2.602-1.509 5.197 3.008zm8.759 5.06-5.203-3.002 2.596-1.503 5.209 3.001zm8.759 5.054-5.208-3.002 2.607-1.503 5.197 3.001zm8.748 5.048-5.197-2.996 2.596-1.504 5.208 3.007zm8.754 5.054-5.192-2.996 2.602-1.498 5.197 3.001zm8.765 5.064-5.197-3.001 2.596-1.504 5.192 3.002zm8.753 5.049-5.202-3.002 2.601-1.498 5.197 3.002zm8.76 5.059-5.203-3.001 2.596-1.504 5.203 3.002zm8.749 5.048-5.192-2.996 2.596-1.503 5.208 3.001zm8.77 5.06-5.203-3.002 2.602-1.498 5.197 3.001zm8.754 5.053-5.203-3.001 2.601-1.504 5.203 3.002zm-100.941-48.156-9.335-5.389 5.192-3.007 9.346 5.405zm-4.829 6.903-12.909-7.451 5.203-2.996 12.903 7.446zm-5.209 7.111-16.454-9.509 5.197-3.001 16.465 9.509zm-17.699 2.003-9.352-5.388 7.041-4.066 9.341 5.394zm12.903 7.452-9.352-5.394 7.041-4.06 9.352 5.394zm12.903 7.446-9.352-5.399 7.047-4.055 9.341 5.394zm44.499 25.686-9.352-5.394 7.036-4.066 9.352 5.4zm21.86 12.626-18.326-10.579 7.047-4.066 18.326 10.585zm-34.752-20.061-28.051-16.193 7.041-4.066 28.051 16.193zm-18.469-42.691-7.645-4.417 5.198-3.002 7.656 4.412zm-4.835 6.898-7.65-4.418 5.202-3.001 7.651 4.417zm-4.955 6.968-7.645-4.417 5.197-3.002 7.645 4.418zm11.201 6.475-7.645-4.422 5.203-3.002 7.645 4.417zm11.207 6.464-7.646-4.417 5.198-2.996 7.65 4.412zm11.213 6.47-7.651-4.418 5.203-3.001 7.645 4.417zm11.201 6.475-7.645-4.423 5.202-3.001 7.645 4.417zm11.207 6.458-7.634-4.412 5.187-3.001 7.65 4.417zm17.826 10.294-14.259-8.236 5.198-2.996 14.264 8.231zm-57.687-43.141-7.645-4.412 5.192-3.001 7.65 4.417zm11.201 6.47-7.645-4.412 5.197-3.001 7.651 4.417zm11.213 6.475-7.656-4.417 5.203-2.996 7.645 4.406zm11.202 6.47-7.646-4.412 5.198-3.007 7.656 4.423zm11.212 6.469-7.656-4.418 5.203-3.001 7.65 4.417zm21.383 12.335-17.826-10.277 5.197-3.007 17.826 10.283zM154.3 131.81l-7.645-4.412 5.197-3.007 7.645 4.418zm11.2 6.47-7.65-4.417 5.203-3.001 7.656 4.417zm11.213 6.464-7.656-4.412 5.203-3.001 7.65 4.417zm11.202 6.475-7.646-4.417 5.192-3.002 7.656 4.417zm11.213 6.464-7.656-4.417 5.202-3.002 7.651 4.423zm11.201 6.475-7.645-4.423 5.197-2.996 7.646 4.412zm13.737 7.918-10.181-5.866 5.209-3.001 10.17 5.871zm4.956-12.972-84.015-48.491 2.525-1.454 84.009 48.491zm-67.467 15.195-42.864-24.748-26.645 15.375 42.869 24.748z"/><path fill="#000" stroke="#000" stroke-linecap="round" stroke-linejoin="round" stroke-miterlimit="10" stroke-width="0.2" d="M243.534 167.087a3.3 3.3 0 0 1-.835.671l-.006-.017-72.467 41.83c-1.383.801-3.469.96-5.131.488-.012 0-1.043-.395-1.202-.488l-106.308-61.37a4 4 0 0 1-.335-.219c-.005 0-.016-.006-.016-.012-.033-.016-.055-.038-.083-.065l-.18-.143c-.023-.027-.056-.049-.078-.077a1.5 1.5 0 0 1-.175-.197c-.011-.006-.022-.017-.028-.022v-.017c-.071-.088-.12-.164-.175-.247a1.6 1.6 0 0 1-.226-.757v1.531c0 .67.423 1.333 1.301 1.849l106.308 61.364c2.547 1.263 6.169 1.016 7.25.78 1.07-.236 2.042-.505 3.172-.752l68.379-39.465c.878-.51 1.306-1.185 1.306-1.849v-3.956c-.004.39-.16.781-.471 1.14"/><path stroke="#000" stroke-dasharray="2 2" stroke-linecap="round" stroke-linejoin="round" stroke-miterlimit="10" stroke-width="0.2" d="M133.812 18.507v81.701c0 .792.188 1.292.688 1.792m-.688-.018v.017"/><path stroke="#000" stroke-dasharray="1.18 1.41" stroke-linecap="round" stroke-linejoin="round" stroke-miterlimit="10" stroke-width="0.2" d="M133.854 17.804c.012-.163.063-.257.202-.404.102-.108.254-.185.406-.294"/><path stroke="#000" stroke-dasharray="2 2" stroke-linecap="round" stroke-linejoin="round" stroke-miterlimit="10" stroke-width="0.2" d="m130.988 103.736-72.787 41.999C57 146.5 56.5 147.5 57 148.5m75.134-45.139c.992-.376 2.185-.01 3.333.573m94.611 54.58 12.724 7.353c1.198.633 1.498 1.933.698 3.133m-107.067-64.605 9.64 5.571"/></svg>